<?xml version="1.0" encoding="UTF-8"?>
<svg width="67px" height="90px" viewBox="0 0 67 90" version="1.1" xmlns="http://www.w3.org/2000/svg" xmlns:xlink="http://www.w3.org/1999/xlink">
    <!-- Generator: Sketch 52.6 (67491) - http://www.bohemiancoding.com/sketch -->
    <title>Group</title>
    <desc>Created with Sketch.</desc>
    <g id="Homepage" stroke="none" stroke-width="1" fill="none" fill-rule="evenodd">
        <g id="UI-Guide" transform="translate(-683.000000, -4994.000000)" fill="#EEEEEE">
            <g id="Group" transform="translate(683.000000, 4994.000000)">
                <polygon id="Path" points="33.413233 89.2406156 -5.86197757e-14 69.9463394 -5.86197757e-14 31.3577869 20.0161293 19.7959029 20.0161293 10.0937082 15.1956189 10.0937082 15.1956189 -4.65405492e-13 30.1098375 -4.65405492e-13 30.1098375 25.6196667 10.0937082 37.1815507 10.0937082 64.1225756 33.413233 77.5808532 56.7449925 64.1225756 56.7449925 37.1815507 36.7288632 25.6196667 36.7288632 -4.65405492e-13 51.6430818 -4.65405492e-13 51.6430818 10.0937082 46.8225714 10.0937082 46.8225714 19.7959029 66.8387007 31.3577869 66.8387007 69.9463394"></polygon>
                <path d="M51.5329686,41.1700948 L51.5329686,60.2196751 L33.4254678,70.6804272 L15.3057321,60.2196751 L15.3057321,46.4065883 C17.5984237,47.2071917 19.9902811,47.6888566 22.4141497,47.8380596 C33.6334593,47.8380596 33.6334593,39.9099106 44.8650038,39.9099106 C47.1442999,39.8532938 49.4105771,40.2698889 51.5207338,41.1333904 L51.5329686,41.1700948 Z" id="Path"></path>
            </g>
        </g>
    </g>
</svg>