<?xml version="1.0" encoding="UTF-8"?>
<svg width="32px" height="32px" viewBox="0 0 32 32" version="1.1" xmlns="http://www.w3.org/2000/svg" xmlns:xlink="http://www.w3.org/1999/xlink">
    <!-- Generator: sketchtool 52.6 (67491) - http://www.bohemiancoding.com/sketch -->
    <title>7272857F-056C-4F7D-8346-47BCCEEB67E6</title>
    <desc>Created with sketchtool.</desc>
    <g id="Homepage" stroke="none" stroke-width="1" fill="none" fill-rule="evenodd">
        <g id="UI-Guide" transform="translate(-531.000000, -5026.000000)">
            <rect fill="#FAFAFA" x="0" y="0" width="1440" height="7262"></rect>
            <g id="primeLabs" transform="translate(535.000000, 5026.000000)">
                <polygon id="Path" fill="#3E3A36" points="11.9715068 31.9736986 0 25.0608219 0 11.2350685 7.17150685 7.09260274 7.17150685 3.61643836 5.44438356 3.61643836 5.44438356 0 10.7879452 0 10.7879452 9.17917808 3.61643836 13.3216438 3.61643836 22.9742466 11.9715068 27.7961644 20.3309589 22.9742466 20.3309589 13.3216438 13.1594521 9.17917808 13.1594521 0 18.5030137 0 18.5030137 3.61643836 16.7758904 3.61643836 16.7758904 7.09260274 23.9473973 11.2350685 23.9473973 25.0608219"></polygon>
                <path d="M18.4635616,14.7506849 L18.4635616,21.5758904 L11.9758904,25.3238356 L5.48383562,21.5758904 L5.48383562,16.6268493 C6.30527582,16.9136946 7.16224579,17.0862686 8.03068493,17.139726 C12.050411,17.139726 12.050411,14.2991781 16.0745205,14.2991781 C16.8911613,14.278893 17.7031376,14.4281534 18.4591781,14.7375342 L18.4635616,14.7506849 Z" id="Path" fill="#00A0DF"></path>
            </g>
        </g>
    </g>
</svg>