<?xml version="1.0" encoding="UTF-8"?>
<svg width="572px" height="339px" viewBox="0 0 572 339" version="1.1" xmlns="http://www.w3.org/2000/svg" xmlns:xlink="http://www.w3.org/1999/xlink">
    <!-- Generator: sketchtool 52.2 (67145) - http://www.bohemiancoding.com/sketch -->
    <title>16B00968-8733-4F05-B5C2-2452FB5031BB</title>
    <desc>Created with sketchtool.</desc>
    <defs>
        <polygon id="path-1" points="0.491186885 0.30625 55.1668852 0.30625 55.1668852 7.59875 0.491186885 7.59875"></polygon>
        <path d="M17.9178023,0.0991287129 L18.2686953,9.35611881 L8.35465814,32.6965941 L11.1199047,36.8813861 L10.1457837,37.9922772 C8.02995116,38.6771089 5.80282791,38.2301386 5.80282791,38.2301386 L0.324706977,31.8248713 L17.9178023,0.0991287129 Z" id="path-3"></path>
        <linearGradient x1="-0.000660342941%" y1="49.9990402%" x2="100.002923%" y2="49.9990402%" id="linearGradient-5">
            <stop stop-color="#E9D18C" offset="0%"></stop>
            <stop stop-color="#524F62" offset="100%"></stop>
        </linearGradient>
        <polygon id="path-6" points="0.717105263 50.1656923 24.2381579 50.4115385 23.2473684 0.706153846"></polygon>
        <linearGradient x1="-106.097761%" y1="87.9482544%" x2="271.796103%" y2="17.6514778%" id="linearGradient-8">
            <stop stop-color="#E9D18C" offset="0%"></stop>
            <stop stop-color="#524F62" offset="100%"></stop>
        </linearGradient>
        <path d="M1.78146154,19.2513158 C2.63276923,20.8657895 3.82669231,22.3368421 5.38938462,23.2671053 C7.48430769,24.5157895 10.0853077,24.6907895 12.4666154,24.1842105 C14.8505385,23.6802632 17.054,22.5486842 19.1541538,21.3078947 C22.9412308,19.0763158 26.54,16.4144737 29.2953077,12.9763158 C31.2306923,10.5605263 32.7332308,7.11842105 31.1600769,4.44736842 C30.1531538,2.73684211 28.1654615,1.88947368 26.2549231,1.37368421 C24.6255385,0.932894737 22.6940769,0.711842105 20.6305385,0.711842105 C9.76753846,0.711842105 -4.76746154,6.82763158 1.78146154,19.2513158" id="path-9"></path>
        <linearGradient x1="19.3708612%" y1="147.732169%" x2="71.6352622%" y2="-37.8573458%" id="linearGradient-11">
            <stop stop-color="#484DC1" offset="0%"></stop>
            <stop stop-color="#444BCC" offset="100%"></stop>
        </linearGradient>
        <polygon id="path-12" points="0 340 571.874932 340 571.874932 0.975538462 0 0.975538462"></polygon>
        <path d="M34.7851935,0.32427907 L7.51358065,28.507907 C7.51358065,28.507907 3.44664516,38.9616744 0.482741935,47.1962791 L0.451,54.9294884 L28.7290968,54.3929302 L19.1258387,43.396093 L40.1654516,33.495814 L38.4236129,0.108093023 L34.7851935,0.32427907 Z" id="path-14"></path>
        <linearGradient x1="-0.000700013321%" y1="49.9982257%" x2="99.9979656%" y2="49.9982257%" id="linearGradient-16">
            <stop stop-color="#B65679" offset="0%"></stop>
            <stop stop-color="#C35670" offset="100%"></stop>
        </linearGradient>
        <path d="M0.22,11.7128571 L10.1333333,26.3982857 C9.65733333,20.0185714 7.33066667,0.174857143 7.33066667,0.174857143 L0.22,11.7128571 Z" id="path-17"></path>
        <linearGradient x1="31.1235293%" y1="114.368582%" x2="88.2900834%" y2="-13.9224588%" id="linearGradient-19">
            <stop stop-color="#484DC1" offset="0%"></stop>
            <stop stop-color="#444BCC" offset="100%"></stop>
        </linearGradient>
        <polygon id="path-20" points="0 340 571.874932 340 571.874932 0.975538462 0 0.975538462"></polygon>
        <polygon id="path-22" points="0.228 0.933272727 303.166621 28.7864545 303.166621 0.933272727"></polygon>
        <linearGradient x1="49.4770195%" y1="76.4058055%" x2="56.4662646%" y2="-276.54042%" id="linearGradient-24">
            <stop stop-color="#676475" offset="0%"></stop>
            <stop stop-color="#524F62" offset="100%"></stop>
        </linearGradient>
    </defs>
    <g id="Homepage" stroke="none" stroke-width="1" fill="none" fill-rule="evenodd">
        <g id="Contacts" transform="translate(-101.000000, -450.000000)">
            <g id="Group-264" transform="translate(101.000000, 449.000000)">
                <g id="Group-6" transform="translate(14.000000, 310.000000)">
                    <path d="M55.0507651,4.038 C55.0507651,6.0505 42.8116761,7.68425 27.7134396,7.68425 C12.615203,7.68425 0.376114052,6.0505 0.376114052,4.038 C0.376114052,2.02425 12.615203,0.39175 27.7134396,0.39175 C42.8116761,0.39175 55.0507651,2.02425 55.0507651,4.038" id="Fill-1" fill="#F1F2F2"></path>
                    <g id="Group-5" transform="translate(502.707260, 1.250000)">
                        <mask id="mask-2" fill="white">
                            <use xlink:href="#path-1"></use>
                        </mask>
                        <g id="Clip-4"></g>
                        <path d="M55.1671471,3.9525 C55.1671471,5.96625 42.9267489,7.59875 27.8298215,7.59875 C12.731585,7.59875 0.491186885,5.96625 0.491186885,3.9525 C0.491186885,1.94 12.731585,0.30625 27.8298215,0.30625 C42.9267489,0.30625 55.1671471,1.94 55.1671471,3.9525" id="Fill-3" fill="#F1F2F2" mask="url(#mask-2)"></path>
                    </g>
                </g>
                <polygon id="Fill-7" fill="#FFFFFF" points="294 1 294 121.013066 318.119249 121.013066 318.119249 74.8044425 347.848111 74.8044425 347.848111 61.7460801 372.099366 61.7460801 372.099366 132.040941 401.247924 132.040941 401.247924 44.6528746 429.208425 44.6528746 429.208425 120.848432 451.11232 120.848432 451.11232 58.0169861 456.588621 58.0169861 456.588621 71.0740418 485.030096 71.0740418 485.030096 44.9599303 495.704307 44.9599303 495.704307 136 519.955562 136 519.955562 61.7460801 520 61.7460801 520 1"></polygon>
                <polygon id="Fill-8" fill="#FFFFFF" points="48 1 48 121.013066 67.2455831 121.013066 67.2455831 74.8044425 96.9746176 74.8044425 96.9746176 61.7460801 121.226013 61.7460801 121.226013 132.040941 150.372125 132.040941 150.372125 44.6528746 178.334095 44.6528746 178.334095 120.848432 200.239424 120.848432 200.239424 58.0169861 205.714449 58.0169861 205.714449 71.0740418 234.156088 71.0740418 234.156088 44.9599303 244.830362 44.9599303 244.830362 136 274 136 274 25.684669 274 1"></polygon>
                <g id="Group-98" transform="translate(0.000000, 76.000000)">
                    <path d="M20.9092963,120.066416 C20.9092963,120.066416 12.4250172,157.473386 25.8584591,182.881426 L39.2932102,208.290772 C39.2932102,208.290772 42.8283265,144.768713 20.9092963,120.066416" id="Fill-9" fill="#5BB59B"></path>
                    <path d="M21.4827707,217.725113 C22.2997753,222.31244 23.3445986,226.938974 25.6188567,231.00745 C27.8931149,235.075925 31.5683265,238.568044 36.1037498,239.664558 C38.1606637,240.162499 40.3026823,240.154657 42.4185149,240.098459 C44.7385986,240.035727 47.1647358,239.88935 49.1653498,238.713113 C51.7721707,237.180083 53.1403916,234.221192 54.1996172,231.391687 C55.9920521,226.603093 57.3524172,221.653747 58.2597637,216.622063 C58.7834847,213.71937 59.1212847,210.569667 57.7622288,207.949271 C55.9226591,204.399648 51.6111265,202.969865 47.6583428,202.326855 C41.0908823,201.256479 32.0475312,200.708875 25.7550242,203.378935 C20.2598823,205.710499 20.5924451,212.716954 21.4827707,217.725113" id="Fill-11" fill="#FFFFFF"></path>
                    <path d="M36.3785723,208.413232 C41.5895956,208.71644 47.2379258,207.919212 50.5190374,206.154855 C51.1749979,205.803291 51.7589467,205.349786 51.4486421,204.918499 C51.0820374,204.408796 49.694177,204.197073 48.4843816,204.072915 C42.21937,203.428598 35.281377,203.135846 29.1486049,204.174855 C20.1641723,205.694816 31.6100933,208.134855 36.3785723,208.413232" id="Fill-13" fill="#524F63"></path>
                    <path d="M33.6366314,110.891109 C33.6366314,110.891109 29.3944919,182.176337 39.2928174,208.290119 C39.2928174,208.290119 45.657336,144.769366 33.6366314,110.891109" id="Fill-15" fill="#63A590"></path>
                    <path d="M38.0426956,207.76996 L40.3392119,207.76996 C43.7185212,193.657723 53.8289537,147.946515 48.4856909,126.610871 C48.4856909,126.610871 31.5158235,186.605525 35.757963,200.014634 C36.7936212,203.532891 37.5242119,206.012139 38.0426956,207.76996" id="Fill-17" fill="#5BB59B"></path>
                    <path d="M524.999071,122.502927 C524.999071,122.502927 516.513483,159.909897 529.948234,185.317937 L543.382985,210.72859 C543.382985,210.72859 546.918101,147.205224 524.999071,122.502927" id="Fill-19" fill="#5BB59B"></path>
                    <path d="M525.571891,220.161493 C526.388896,224.74882 527.435028,229.376661 529.707977,233.44383 C531.982235,237.512305 535.657447,241.004424 540.19287,242.100939 C542.249784,242.598879 544.391803,242.591038 546.506326,242.53484 C548.829028,242.472107 551.252547,242.325731 553.25447,241.149493 C555.8626,239.616463 557.229512,236.657572 558.288737,233.828067 C560.081172,229.039473 561.441537,224.090127 562.348884,219.05975 C562.871296,216.15575 563.210405,213.006048 561.852658,210.385651 C560.011779,206.836028 555.700247,205.406246 551.747463,204.763236 C545.181312,203.692859 536.135342,203.146562 529.844144,205.815315 C524.349003,208.146879 524.680256,215.153335 525.571891,220.161493" id="Fill-21" fill="#FFFFFF"></path>
                    <path d="M540.467693,210.849612 C545.678716,211.15282 551.327046,210.356899 554.608158,208.591236 C555.265427,208.239671 555.848067,207.786166 555.539072,207.354879 C555.171158,206.845176 553.784607,206.633453 552.573502,206.510602 C546.30849,205.864978 539.370497,205.572226 533.239034,206.611236 C524.253293,208.131196 535.699213,210.571236 540.467693,210.849612" id="Fill-23" fill="#524F63"></path>
                    <path d="M537.726406,113.32762 C537.726406,113.32762 533.484267,184.612848 543.382592,210.727937 C543.382592,210.727937 549.747111,147.205877 537.726406,113.32762" id="Fill-25" fill="#63A590"></path>
                    <path d="M542.13247,210.206341 L544.428987,210.206341 C547.808296,196.094103 557.918729,150.384202 552.575466,129.047251 C552.575466,129.047251 535.605598,189.041905 539.847738,202.451014 C540.883396,205.969271 541.613987,208.448519 542.13247,210.206341" id="Fill-27" fill="#5BB59B"></path>
                    <path d="M146.618293,249.986044 C146.618293,254.360341 119.022128,257.906044 84.9802674,257.906044 C50.938407,257.906044 23.3422419,254.360341 23.3422419,249.986044 C23.3422419,245.611747 50.938407,242.066044 84.9802674,242.066044 C119.022128,242.066044 146.618293,245.611747 146.618293,249.986044" id="Fill-29" fill="#F1F2F2"></path>
                    <path d="M556.7253,256.077909 C556.7253,260.452206 529.129134,263.997909 495.087274,263.997909 C461.045413,263.997909 433.449248,260.452206 433.449248,256.077909 C433.449248,251.703612 461.045413,248.157909 495.087274,248.157909 C529.129134,248.157909 556.7253,251.703612 556.7253,256.077909" id="Fill-31" fill="#F1F2F2"></path>
                    <path d="M288.203235,248.157125 C288.203235,252.531422 260.605761,256.077125 226.5639,256.077125 C192.52204,256.077125 164.927184,252.531422 164.927184,248.157125 C164.927184,243.784135 192.52204,240.238432 226.5639,240.238432 C260.605761,240.238432 288.203235,243.784135 288.203235,248.157125" id="Fill-33" fill="#F1F2F2"></path>
                    <path d="M450.536298,245.720745 C450.536298,250.095042 422.940133,253.640745 388.898273,253.640745 C354.856412,253.640745 327.261557,250.095042 327.261557,245.720745 C327.261557,241.346448 354.856412,237.800745 388.898273,237.800745 C422.940133,237.800745 450.536298,241.346448 450.536298,245.720745" id="Fill-35" fill="#F1F2F2"></path>
                    <path d="M328.603722,232.468859 C328.603722,236.843156 312.118297,240.388859 291.784832,240.388859 C271.450057,240.388859 254.964632,236.843156 254.964632,232.468859 C254.964632,228.094562 271.450057,224.548859 291.784832,224.548859 C312.118297,224.548859 328.603722,228.094562 328.603722,232.468859" id="Fill-37" fill="#F1F2F2"></path>
                    <path d="M95.9799781,37.8147327 L119.235806,41.58 L108.170892,31.4944158 L113.460473,25.6053861 L133.573976,43.5626139 C136.347078,46.4705347 134.368722,51.2826535 130.349164,51.4081188 L102.17036,52.2863762 L95.9799781,37.8147327 Z" id="Fill-39" fill="#E0E4ED"></path>
                    <polygon id="Fill-41" fill="#524F63" points="105.691728 97.3113149 105.228235 248.848622 97.2414909 249.418444 91.6952863 120.855671 84.2780886 121.424186 76.701156 248.280107 68.7144119 247.710285 69.7225747 94.5680673"></polygon>
                    <path d="M95.9799781,37.8147327 L69.1209502,36.6868515 C66.34392,36.5705347 63.6690153,37.7402376 61.8739619,39.8561584 L69.72192,101.246614 L106.430829,101.983723 L103.079015,45.7138218 C103.079015,45.7138218 96.9567177,37.8565545 95.9799781,37.8147327" id="Fill-43" fill="#E0E4ED"></path>
                    <path d="M108.081467,26.0554931 C106.607192,27.2238891 104.728343,28.3060277 104.432441,30.1631762 C104.175818,31.7680871 105.360737,33.3690772 106.882146,33.9506614 C108.404864,34.5309386 110.143618,34.2512554 111.629676,33.5873347 C114.027009,32.5182653 116.004055,30.3500673 116.44529,27.7662653 C116.768688,25.8725228 115.921569,22.2327208 113.719323,21.5688 C111.219864,20.8173149 109.890923,24.623097 108.081467,26.0554931" id="Fill-45" fill="#FFFFFF"></path>
                    <polygon id="Fill-47" fill="#424051" points="68.71415 247.710416 53.1714221 252.343485 53.7422779 253.671327 76.3526198 251.205149 76.7022035 248.280238"></polygon>
                    <path d="M18.4773981,38.2900634 L16.0146005,34.1091921 L18.723547,28.452796 C18.723547,28.452796 20.2017493,24.5176277 20.2017493,23.2891129 C20.2017493,22.0592911 18.9696958,20.3380634 17.7389516,22.550697 C16.5068981,24.7646376 15.2748447,26.4858653 15.2748447,26.4858653 L7.97024698,15.6657861 C7.76206791,15.3573505 7.41510279,15.1730733 7.04326093,15.1730733 C6.19745163,15.1730733 5.65801907,16.0735485 6.05866558,16.8171921 L7.73064465,19.9211525 C8.28578884,20.9523208 7.07861209,22.0318455 6.11234698,21.3679248 L5.77716558,21.137905 C3.93759581,19.8754099 1.42373535,20.3158455 0.126216744,22.1285584 L0.00052372093,22.3049941 L0.122288837,25.984004 C0.202156279,28.3430139 1.29149581,30.5530337 3.11928186,32.0507762 C7.43081442,35.5847168 15.0980888,41.7704198 15.2748447,41.2411129 C15.5209935,40.502697 18.4773981,38.2900634 18.4773981,38.2900634" id="Fill-49" fill="#EEBCC5"></path>
                    <path d="M101.818812,14.1399446 C100.80934,13.642004 99.4961095,14.1242614 98.8637165,15.0534891 C98.2313235,15.9827168 98.207756,17.2295287 98.5822165,18.2881426 C99.2826933,20.2642218 101.437805,21.6665584 103.513049,21.3555089 C105.589603,21.0457663 107.272056,18.9363802 106.965679,16.8635881 C106.745717,15.3776079 105.602696,14.1098851 104.199123,13.564895 C102.796861,13.019905 101.1838,13.1479842 99.7985584,13.7374099" id="Fill-51" fill="#EEBCC5"></path>
                    <path d="M101.285664,16.4679802 L113.371834,25.9458416 C113.371834,25.9458416 113.658571,31.1160594 110.782034,31.6911089 C109.917894,32.2648515 98.695864,20.4894059 98.695864,20.4894059 L101.285664,16.4679802 Z" id="Fill-53" fill="#EEBCC5"></path>
                    <path d="M97.24136,249.418182 L97.6341507,251.964083 L117.205602,255.188281 C117.205602,255.188281 118.154846,253.670935 117.5853,253.48143 C117.014444,253.291925 105.229413,248.84836 105.229413,248.84836 L97.24136,249.418182 Z" id="Fill-55" fill="#424051"></path>
                    <path d="M78.1433526,24.848804 L78.760034,41.5526851 C78.760034,43.4908634 80.1727712,45.1402099 82.0908991,45.4434178 C84.2813619,45.7897545 86.3278014,44.2645663 86.6197758,42.0702297 L87.4682037,27.6260317 L78.1433526,24.848804 Z" id="Fill-57" fill="#EEBCC5"></path>
                    <polygon id="Fill-59" fill="#524F63" points="99.6195767 28.8212198 91.1339884 27.2450614 94.4622349 9.3871604 102.947823 10.9633188"></polygon>
                    <polygon id="Fill-61" fill="#524F63" points="98.6785812 28.6470059 91.1330719 27.2459762 94.4613184 9.38807525 102.006828 10.787798"></polygon>
                    <path d="M77.1735523,39.101798 C77.1735523,39.101798 75.9493547,40.1486495 75.8616314,40.4989069 C75.7739081,40.8478574 80.5842849,48.3561743 80.5842849,48.3561743 L83.8208802,43.2055604 L87.843057,48.3561743 L89.5058709,39.0142337 L86.7943058,38.4025901 L83.733157,41.8960158 L78.3100267,37.5295604 L77.1735523,39.101798 Z" id="Fill-63" fill="#FFFFFF"></path>
                    <polygon id="Fill-65" fill="#00A0DF" points="83.8203565 43.2051683 81.8092681 46.5221584 83.2089123 49.0549901 82.4207123 50.9748713 83.2089123 75.5948317 86.0068914 78.7366931 88.54301 75.7699604 85.9204774 50.8873069 84.43311 48.8798614 86.2700612 46.3483366"></polygon>
                    <path d="M71.1666042,6.98123168 C69.4697484,10.896796 69.6582879,15.384796 70.5512321,19.5565188 C71.5214251,24.0889545 73.4238414,28.6370733 77.0204949,31.5685188 C80.6184577,34.4999644 86.1987042,35.3324792 89.9053391,32.5408752 C92.1128228,30.8771525 93.3592786,28.2410733 94.1985414,25.6102218 C95.8692112,20.3772713 96.2096298,14.5313703 94.0335693,9.48661782 C90.0428158,0.237469307 75.9324647,-4.01005545 71.1666042,6.98123168" id="Fill-67" fill="#EEBCC5"></path>
                    <polygon id="Fill-69" fill="#E0E4ED" points="65.1627984 57.4990693 36.3280333 66.7900396 15.3726495 44.002396 20.5941472 39.6960594 39.9115937 55.5046931 61.8738309 39.8568119 65.6171263 46.3940792"></polygon>
                    <polygon id="Fill-71" fill="#FFFFFF" points="12.0721602 42.4706733 14.2888091 45.9131287 24.1439277 40.2580396 20.2016184 36.3228713"></polygon>
                    <path d="M66.2310581,14.397802 C64.9859116,14.9427921 64.3744674,16.4444554 64.5132535,17.7945149 C64.6494209,19.1445743 65.390486,20.3574059 66.2232023,21.4290891 C66.685386,22.0237426 67.192086,22.6014059 67.8336442,22.9974059 C68.4555628,23.3803366 69.1782977,23.5750693 69.9036512,23.6704752 C70.7939767,23.7894059 71.8427279,23.6953069 72.3638302,22.9647327 C72.6387837,22.5791881 72.7081767,22.0890891 72.7644767,21.619901 C73.0368116,19.394198 72.4620279,18.5120198 71.1710558,16.9005743 C69.9887558,15.4211287 68.434614,13.4306733 66.2310581,14.397802" id="Fill-73" fill="#EEBCC5"></path>
                    <path d="M74.4775679,14.5483604 C74.291647,16.8720832 73.1905237,19.2493901 71.1480121,20.3785782 C69.6239842,18.4299446 68.8200726,15.989905 68.549047,13.5315683 C68.2138656,10.4942614 68.7100912,7.2674495 70.4881237,4.7803604 C72.5175423,1.94170693 76.019926,0.389073267 79.5039795,0.136835644 C82.988033,-0.11540198 86.4642307,0.804677228 89.6968981,2.12859802 C91.0978516,2.70234059 92.8942144,3.28523168 93.9626051,2.21354851 C94.5203679,3.26170693 94.8188888,4.44709307 94.824126,5.63509307 C94.828054,6.54602376 94.6499888,7.48309307 94.1445981,8.2424198 C93.2896237,9.52190495 91.9043819,10.9516871 90.3999935,11.2862614 C79.0260842,13.8230139 73.7404307,7.66083564 73.6880586,7.83073663 C73.5021377,8.43845941 73.867433,9.19517228 74.0075284,9.81204356 C74.3623493,11.3633703 74.6058795,12.953905 74.4775679,14.5483604" id="Fill-75" fill="#524F63"></path>
                    <path d="M241.792003,141.911632 L238.561954,79.0809386 C238.561954,79.0809386 222.377668,78.1138099 217.562054,78.1138099 C214.939521,78.1138099 210.45647,79.356701 206.918735,80.487196 C203.595726,81.5510376 200.834407,81.4569386 199.218728,84.5465228 L172.677861,135.324701 L188.985221,136.874721 L194.421445,130.673335 L191.656198,126.488543 L201.571545,103.148067 L201.4105,142.687949 L241.792003,141.911632 Z" id="Fill-77" fill="#EAD18C"></path>
                    <g id="Group-81" transform="translate(183.302326, 93.792079)">
                        <mask id="mask-4" fill="white">
                            <use xlink:href="#path-3"></use>
                        </mask>
                        <g id="Clip-80"></g>
                        <path d="M17.9178023,0.0991287129 L0.324706977,31.8248713 L5.80282791,38.2301386 C5.80282791,38.2301386 8.02995116,38.6771089 10.1457837,37.9922772 L11.1199047,36.8813861 L8.35465814,32.6965941 L18.2686953,9.35611881 L17.9178023,0.0991287129 Z" id="Fill-79" fill="url(#linearGradient-5)" mask="url(#mask-4)"></path>
                    </g>
                    <path d="M215.247993,129.208657 C214.567156,128.981251 209.119149,125.809331 205.034126,125.809331 C200.949102,125.809331 195.955423,130.11436 195.955423,130.11436 C195.955423,130.11436 195.274586,132.380578 197.997935,131.927073 C200.721284,131.473568 202.537286,131.247469 202.537286,131.247469 C202.537286,131.247469 197.770116,133.739786 200.949102,134.191984 C204.12547,134.645489 217.518323,134.191984 217.518323,134.191984 L215.247993,129.208657 Z" id="Fill-82" fill="#91616A"></path>
                    <path d="M214.244282,138.424741 L161.806724,138.424741 L161.806724,134.586285 L214.244282,134.586285 C215.306126,134.586285 216.166338,135.446246 216.166338,136.506166 C216.166338,137.566087 215.306126,138.424741 214.244282,138.424741" id="Fill-84" fill="#4F4F4F"></path>
                    <path d="M199.85793,138.424741 L149.291365,138.424741 C147.055076,138.424741 145.098979,136.923077 144.525504,134.764028 L135.6013,101.202048 C134.769893,98.0784832 137.129255,95.0163446 140.36716,95.0163446 L184.522072,95.0163446 C186.75836,95.0163446 188.714458,96.5193149 189.289241,98.6757505 L199.85793,138.424741 Z" id="Fill-86" fill="#7C7C7C"></path>
                    <path d="M170.079027,119.692503 C170.632862,121.881612 169.252857,123.656424 166.996929,123.656424 C164.739692,123.656424 162.461506,121.881612 161.907671,119.692503 C161.353836,117.503394 162.73515,115.728582 164.991078,115.728582 C167.247006,115.728582 169.525192,117.503394 170.079027,119.692503" id="Fill-88" fill="#FFFFFF"></path>
                    <path d="M215.92883,70.3009782 C216.383158,71.2066812 219.560835,83.6682653 219.560835,83.6682653 C219.560835,83.6682653 220.696,85.7070772 223.419349,85.4809782 C226.142698,85.2535723 227.277863,81.4020475 227.277863,81.4020475 L222.510693,65.7698495 L215.92883,70.3009782 Z" id="Fill-90" fill="#91616A"></path>
                    <path d="M232.728619,62.6265505 C232.728619,71.2104713 223.597545,80.7092436 214.998047,80.7092436 C206.399859,80.7092436 201.586863,71.2104713 201.586863,62.6265505 C201.586863,54.0426297 208.558898,47.0832238 217.157087,47.0832238 C225.756584,47.0832238 232.728619,54.0426297 232.728619,62.6265505" id="Fill-92" fill="#91616A"></path>
                    <path d="M218.425932,79.8164792 L216.609929,84.5750139 L217.745094,89.5596475 L221.37579,84.3476079 L225.007794,90.2379446 L229.094127,82.9884 L226.369469,78.2311723 C226.369469,78.2311723 225.007794,81.4017861 222.056627,82.0813901 C219.106769,82.762301 218.425932,79.8164792 218.425932,79.8164792" id="Fill-94" fill="#FFFFFF"></path>
                    <polygon id="Fill-96" fill="#000000" points="221.376444 84.348 218.653096 87.7460198 220.01477 89.7848317 217.972258 94.0898614 218.426586 122.41105 221.149935 128.075287 225.008449 121.731446 224.101103 94.7707723 222.057282 89.5587327 223.646775 87.2925149"></polygon>
                </g>
                <g id="Group-101" transform="translate(217.000000, 168.000000)">
                    <mask id="mask-7" fill="white">
                        <use xlink:href="#path-6"></use>
                    </mask>
                    <g id="Clip-100"></g>
                    <polygon id="Fill-99" fill="url(#linearGradient-8)" mask="url(#mask-7)" points="0.717105263 50.1656923 24.2381579 50.4115385 23.2473684 0.706153846"></polygon>
                </g>
                <g id="Group-126" transform="translate(153.000000, 106.000000)">
                    <path d="M85.4938903,49.1994929 L87.648229,95.8999393 L66.0186161,100.295582 L68.9685839,105.937439 L99.9288742,107.733761 L95.6998903,61.5430107 C95.2648419,56.7836714 92.3801968,52.5913857 88.0845839,50.4756893 L85.4938903,49.1994929 Z" id="Fill-102" fill="#EAD18C"></path>
                    <polygon id="Fill-104" fill="#FFFFFF" points="62.2309516 99.197975 66.5344032 99.6503143 70.3845161 105.976546 63.1480806 106.477118"></polygon>
                    <path d="M40.6656161,120.336429 L2.38397097,130.05325 L21.8605516,206.44775 L28.5770194,203.096268 L22.8678258,137.423643 L57.1203742,126.701768 L37.3080355,138.093679 L37.6437935,200.417429 L43.6874387,200.417429 C43.6874387,200.417429 60.4792613,139.43375 62.1567452,139.43375 C63.8368419,139.43375 92.0444387,120.671446 92.0444387,120.671446 L40.6656161,120.336429 Z" id="Fill-106" fill="#524F63"></path>
                    <polygon id="Fill-108" fill="#524F63" points="1.26094516 212.462168 27.8825097 210.574596 28.6141226 202.205668 0.1583 208.667471"></polygon>
                    <polygon id="Fill-110" fill="#524F63" points="22.8683484 217.169886 28.2404774 217.839921 43.3522032 212.144618 43.6879613 200.416386 37.6443161 200.416386 34.9569452 207.788082 26.8125258 212.697332"></polygon>
                    <path d="M48.0602629,27.2755071 C47.4527629,28.3887571 46.8308919,29.6884179 47.2829242,30.8720607 C47.8368597,32.3203286 49.6410694,32.7622393 51.1839887,32.9434357 C53.8465371,33.2549893 56.5299887,33.3931679 59.2108274,33.3579714 C60.9889081,33.3332036 62.7761339,33.231525 64.5071823,32.8274179 C67.3395694,32.1652036 69.9158919,30.72215 72.4491016,29.2960429 C74.2546177,28.2792571 76.2534887,26.9978464 76.5814081,24.95515 C76.9067145,22.9294 75.4343435,21.0991857 74.0599565,19.5740071 C73.2786984,18.7071321 72.4909081,17.8337393 71.5502629,17.14415 C69.2522145,15.4573286 66.20165,15.0193286 63.3849403,15.4716679 C56.3888919,16.59665 51.3263919,21.2999357 48.0602629,27.2755071" id="Fill-112" fill="#4A4549"></path>
                    <path d="M73.4811984,32.2930839 C73.7228919,31.4757446 74.7484565,31.0520839 75.5597629,31.3193161 C76.3697629,31.5878518 76.919779,32.3999768 77.0465048,33.2420839 C77.1745371,34.0854946 76.9354565,34.9471554 76.5631177,35.7136554 C76.381521,36.0877804 76.1659565,36.4501732 76.0679726,36.8542804 C75.9869726,37.1932089 75.9921984,37.5464768 75.9974242,37.8945304 C76.0222468,39.4092804 76.0470694,40.9240304 76.0718919,42.4387804 C77.324779,41.9629768 78.0563919,40.6906911 78.6874081,39.5096554 C80.0735532,36.9168518 81.4975855,34.1545839 81.3368919,31.2215482 C81.2036339,28.7916911 79.9925532,26.5664946 78.7657952,24.4638339 C78.5018919,24.0114946 78.2223113,23.5474232 77.7937952,23.2476018 C77.1849887,22.8200304 76.3632306,22.8004768 75.6512145,23.0168696 C74.9405048,23.2332625 74.3134081,23.6569232 73.6993758,24.0753696 C73.0957952,24.4859946 72.4922145,24.8966196 71.8899403,25.3059411 C71.3033435,25.7048339 70.6919242,26.1311018 70.3744565,26.7659411 C69.7996177,27.9117804 70.5978597,28.3954054 71.2693758,29.0889054 C71.6103597,29.4421732 71.0080855,36.9729054 73.4811984,32.2930839" id="Fill-114" fill="#4A4549"></path>
                    <path d="M48.0155823,37.8988321 C47.2513081,37.8988321 46.6268242,38.1869214 46.2557919,38.7096536 C45.8207435,39.3262429 45.7645661,40.2257071 46.1029371,41.1760107 C46.7888242,43.0948679 48.8229694,44.6565464 50.6402435,44.6565464 C51.4045177,44.6565464 52.0290016,44.3684571 52.3987274,43.845725 C52.8337758,43.2304393 52.8899532,42.330975 52.5515823,41.3793679 C51.8670016,39.4605107 49.8328565,37.8988321 48.0155823,37.8988321 M50.6402435,45.2640107 C48.5865016,45.2640107 46.293679,43.5211357 45.5307113,41.3793679 C45.1244048,40.2400464 45.2080177,39.1385286 45.7593403,38.3589929 C46.2466468,37.6707071 47.0475016,37.2913679 48.0155823,37.2913679 C50.0693242,37.2913679 52.3621468,39.0342429 53.1251145,41.1760107 C53.531421,42.3153321 53.4478081,43.41685 52.8964855,44.1963857 C52.409179,44.8846714 51.6083242,45.2640107 50.6402435,45.2640107" id="Fill-116" fill="#EFF2F7"></path>
                    <path d="M58.3193048,37.8988321 C57.5550306,37.8988321 56.9305468,38.1869214 56.560821,38.7096536 C56.1244661,39.3262429 56.0682887,40.2257071 56.4079661,41.1760107 C57.0925468,43.0948679 59.1266919,44.6565464 60.9439661,44.6565464 C61.7082403,44.6565464 62.3327242,44.3684571 62.70245,43.845725 C63.1388048,43.2304393 63.1936758,42.330975 62.8553048,41.3793679 C62.1707242,39.4605107 60.136579,37.8988321 58.3193048,37.8988321 M60.9439661,45.2640107 C58.8902242,45.2640107 56.5974016,43.5211357 55.8344339,41.3793679 C55.4281274,40.2400464 55.5117403,39.1385286 56.0630629,38.3589929 C56.5503694,37.6707071 57.3512242,37.2913679 58.3193048,37.2913679 C60.3730468,37.2913679 62.6658694,39.0342429 63.4288371,41.1760107 C63.8351435,42.3153321 63.7515306,43.41685 63.2002081,44.1963857 C62.7129016,44.8846714 61.9120468,45.2640107 60.9439661,45.2640107" id="Fill-118" fill="#EFF2F7"></path>
                    <path d="M117.714906,8.57108214 C117.8756,11.00485 119.213406,13.4268857 118.539277,15.7720107 C117.987955,17.6947786 116.191584,19.0674393 115.637648,20.9889036 C115.007939,23.1697786 116.117116,25.4340821 117.193632,27.4337607 C118.092471,29.1062429 119.35189,31.00685 121.254084,31.015975 C122.086294,31.0198857 122.864939,30.6392429 123.60831,30.2664214 C125.419052,29.3604393 127.229794,28.4544571 129.040535,27.548475 C129.8231,27.1574036 130.617423,26.7572071 131.248439,26.1536536 C132.19039,25.2541893 132.679003,23.9949393 133.123197,22.7734929 C134.517181,18.9449036 135.763535,14.9351179 135.442148,10.8771 C135.120761,6.816475 132.895874,2.66720714 129.104552,1.16158214 C126.981568,0.318171429 120.77331,-0.433989286 118.95081,1.37927857 C118.138197,2.18749286 118.544503,3.04524286 118.441294,4.07376071 C118.287132,5.61849286 117.609084,6.97420714 117.714906,8.57108214" id="Fill-120" fill="#524F63"></path>
                    <path d="M122.112815,20.7309268 L120.262879,21.2354089 C112.574411,26.2293911 108.074992,33.1696054 107.105605,42.2724446 L103.18625,105.60907 L109.079653,102.978462 L122.112815,20.7309268 Z" id="Fill-122" fill="#EEBCC5"></path>
                    <path d="M160.996865,20.2497786 L129.598913,18.9735821 C126.94551,18.8653857 122.273639,19.8091714 119.729977,20.5704571 L115.729623,22.4332607 L122.77401,55.9937071 C116.359332,66.8446357 113.155913,79.2859214 113.534784,91.8771179 L117.26209,137.640296 L152.457897,137.640296 L156.940332,89.3716536 C157.319203,79.4892786 155.490171,69.6447071 151.586494,60.5549036 L149.671235,56.0966893 L160.996865,20.2497786 Z" id="Fill-124" fill="#F0426C"></path>
                </g>
                <g id="Group-129" transform="translate(274.000000, 120.000000)">
                    <mask id="mask-10" fill="white">
                        <use xlink:href="#path-9"></use>
                    </mask>
                    <g id="Clip-128"></g>
                    <path d="M1.78146154,19.2513158 C2.63276923,20.8657895 3.82669231,22.3368421 5.38938462,23.2671053 C7.48430769,24.5157895 10.0853077,24.6907895 12.4666154,24.1842105 C14.8505385,23.6802632 17.054,22.5486842 19.1541538,21.3078947 C22.9412308,19.0763158 26.54,16.4144737 29.2953077,12.9763158 C31.2306923,10.5605263 32.7332308,7.11842105 31.1600769,4.44736842 C30.1531538,2.73684211 28.1654615,1.88947368 26.2549231,1.37368421 C24.6255385,0.932894737 22.6940769,0.711842105 20.6305385,0.711842105 C9.76753846,0.711842105 -4.76746154,6.82763158 1.78146154,19.2513158" id="Fill-127" fill="url(#linearGradient-11)" mask="url(#mask-10)"></path>
                </g>
                <g id="Group-158">
                    <path d="M300.437636,109.5344 C300.437636,117.886631 291.526047,129.229554 283.170451,129.229554 C274.814855,129.229554 270.17591,117.886631 270.17591,109.5344 C270.17591,101.180862 276.949869,94.4096308 285.306773,94.4096308 C293.662369,94.4096308 300.437636,101.180862 300.437636,109.5344" id="Fill-130" fill="#EEBCC5"></path>
                    <path d="M313.969463,125.932338 L335.777477,154.347185 C338.062936,157.3248 337.264922,161.6258 334.061093,163.584723 L308.566518,179.176338 L305.418942,174.262031 L322.908525,160.246185 C324.180114,159.226185 324.448299,157.399338 323.523388,156.058954 L310.258045,137.270031 L313.969463,125.932338 Z" id="Fill-132" fill="#EEBCC5"></path>
                    <path d="M244.018722,214.364377 L257.710544,214.364377 C259.903119,214.364377 261.720236,212.6683 261.873297,210.483146 L261.981879,208.923069 L244.018722,214.364377 Z" id="Fill-134" fill="#EEBCC5"></path>
                    <path d="M281.230232,119.703538 C281.028766,119.198769 284.846149,129.683846 284.846149,129.683846 C284.846149,129.683846 285.706958,133.986154 289.321567,132.954385 C292.937485,131.921308 290.699122,116.605615 290.182375,116.434308 C289.665629,116.261692 281.574293,120.564 281.230232,119.703538" id="Fill-136" fill="#EEBCC5"></path>
                    <path d="M290.205662,107.546708 C283.201456,111.808477 275.832258,116.189246 267.648038,116.688785 C269.490011,114.404246 269.119785,111.138938 269.458614,108.226708 C270.010682,103.457554 272.829895,99.0009385 276.903689,96.4574769 C280.976175,93.9140154 286.219518,93.3360154 290.748573,94.9314 C292.4401,95.5264 294.081915,96.4522462 295.125874,97.9090154 C298.136086,102.111938 293.457895,105.566862 290.205662,107.546708" id="Fill-138" fill="#524F63"></path>
                    <path d="M289.570652,124.335385 C290.037686,126.583308 291.464953,128.574923 291.722673,130.855538 C291.887508,132.337154 291.547371,133.821385 291.207234,135.271615 C290.796453,137.025231 290.386981,138.777538 289.9762,140.529846 C292.412104,140.046 294.632152,138.772308 296.574858,137.225308 C303.584296,131.645385 307.204138,122.109692 305.664364,113.286692 C305.226111,110.768077 304.404549,108.333154 303.504495,105.941385 C302.812447,104.096231 302.052371,102.238 300.810871,100.708 C299.568063,99.178 297.760104,97.9971538 295.788618,97.9461538 C293.432515,97.886 291.289652,99.4382308 289.909481,101.346154 C288.967563,102.648615 288.278132,104.196923 288.309529,105.802769 C288.342234,107.408615 288.902152,112.872154 290.373899,113.515538 C292.238111,112.387 295.027234,113.386077 295.749371,115.441769 C296.887522,118.684846 293.983275,119.306 292.045803,120.416231 C289.637371,121.798462 289.048673,121.824615 289.570652,124.335385" id="Fill-140" fill="#524F63"></path>
                    <path d="M305.643695,114.4746 C307.128523,115.590062 308.821359,116.442677 310.12827,117.762138 C311.435181,119.080292 312.303838,121.081062 311.61179,122.803292 C311.176153,123.887369 310.219845,124.653677 309.394359,125.481446 C308.568873,126.309215 307.803564,127.374985 307.937003,128.536215 C308.024653,129.305138 308.491688,129.968138 308.918167,130.612831 C310.031462,132.297138 310.994311,134.271754 310.663332,136.264677 C310.397763,137.869215 309.279236,139.269754 307.853277,140.054369 C306.427318,140.838985 304.725325,141.041677 303.113599,140.8076 C302.178222,140.6716 301.253311,140.393062 300.308777,140.434908 C297.817927,140.542138 295.858215,142.793985 293.380448,143.084292 C291.976729,143.249062 290.507599,142.716831 289.535592,141.6916 C288.562277,140.666369 288.109633,139.171677 288.347729,137.778985 C288.738886,135.498369 290.735229,133.896446 292.573277,132.489369 C294.408708,131.082292 296.372345,129.407138 296.643147,127.109523 C296.845921,125.395138 296.037441,123.679446 296.248064,121.966369 C296.551571,119.510523 298.834414,117.711138 299.385174,115.297138 C299.697838,113.926677 299.19679,110.459985 301.348811,110.503138 C302.993242,110.537138 304.424434,113.557908 305.643695,114.4746" id="Fill-142" fill="#524F63"></path>
                    <path d="M287.575225,111.734723 C287.131739,112.565108 286.56528,113.322262 286.001438,114.0768 C285.207349,115.139954 284.411951,116.203108 283.617862,117.264954 C284.192171,115.223646 284.384479,113.075108 284.180397,110.963185 C284.150308,110.641492 284.111061,110.311954 284.188246,109.9968 C284.334766,109.400492 284.863287,108.987262 285.374801,108.648569 C286.104787,108.164723 287.982082,106.602031 288.723842,107.606338 C289.307308,108.396185 287.967691,111.001108 287.575225,111.734723" id="Fill-144" fill="#524F63"></path>
                    <polygon id="Fill-146" fill="#524F63" points="306.020592 169.639731 304.580243 170.918654 309.58549 176.765346"></polygon>
                    <path d="M412.327399,217.840485 L409.100022,154.973177 C409.100022,154.973177 392.930433,151.566638 388.117495,151.566638 C385.497132,151.566638 381.017789,152.810254 377.482981,153.942715 C374.162721,155.007177 371.403686,157.350562 369.789344,160.441946 L343.271741,211.249715 L359.565611,212.800638 L364.996029,206.595638 L362.234378,202.408408 L372.140214,179.054331 L371.979303,218.617254 L412.327399,217.840485 Z" id="Fill-148" fill="#D98E9D"></path>
                    <path d="M410.16452,136.7769 C410.16452,145.365823 403.199561,152.329285 394.605869,152.329285 C389.851801,152.329285 386.552472,147.394054 383.699246,144.033285 C381.39678,141.321131 379.58228,140.553515 379.58228,136.719362 C379.58228,128.130438 386.014794,121.225823 394.605869,121.225823 C403.199561,121.225823 410.16452,128.187977 410.16452,136.7769" id="Fill-150" fill="#EEBCC5"></path>
                    <polygon id="Fill-152" fill="#524F63" points="370.428671 214.351562 316.112718 214.351562 304.580766 170.917869 358.896718 170.917869"></polygon>
                    <polygon id="Fill-154" fill="#FFFFFF" points="370.428671 214.351562 317.808171 214.351562 306.021116 169.640254 359.255171 170.917869"></polygon>
                    <mask id="mask-13" fill="white">
                        <use xlink:href="#path-12"></use>
                    </mask>
                    <g id="Clip-157"></g>
                    <polygon id="Fill-156" fill="#524F63" mask="url(#mask-13)" points="316.553719 214.351692 353.793486 214.351692 353.793486 211.204077 316.553719 211.204077"></polygon>
                </g>
                <g id="Group-161" transform="translate(371.000000, 164.000000)">
                    <mask id="mask-15" fill="white">
                        <use xlink:href="#path-14"></use>
                    </mask>
                    <g id="Clip-160"></g>
                    <path d="M34.7851935,0.32427907 L7.51358065,28.507907 C7.51358065,28.507907 3.44664516,38.9616744 0.482741935,47.1962791 L0.451,54.9294884 L28.7290968,54.3929302 L19.1258387,43.396093 L40.1654516,33.495814 L38.4236129,0.108093023 L34.7851935,0.32427907 Z" id="Fill-159" fill="url(#linearGradient-16)" mask="url(#mask-15)"></path>
                </g>
                <g id="Group-220" transform="translate(306.000000, 109.000000)">
                    <polygon id="Fill-162" fill="#00A0DF" points="50.1655457 95.6740301 21.1712741 95.6740301 14.6751753 71.0700763 44.0083852 71.7728971"></polygon>
                    <path d="M58.4161407,117.676763 L20.0703136,127.414358 L39.5795481,203.972185 L46.3072765,200.613538 L40.5885111,134.800509 L74.8984864,124.055711 L55.0529309,135.471977 L55.3892519,197.928971 L61.4430296,197.928971 C61.4430296,197.928971 78.2616963,136.814913 79.9433012,136.814913 C81.6249062,136.814913 109.879795,118.012497 109.879795,118.012497 L58.4161407,117.676763 Z" id="Fill-164" fill="#37354C"></path>
                    <polygon id="Fill-166" fill="#524F63" points="18.9447506 209.999461 45.6122568 208.107854 46.3450963 199.721034 17.8402568 206.196652"></polygon>
                    <path d="M79.0247654,49.5439029 C79.2655556,52.555059 79.8308889,55.5400879 80.707679,58.431059 C80.9026667,59.0685618 81.1356049,59.7387237 81.661679,60.1489202 C82.74,60.9889087 84.3051358,60.2821688 85.4279506,59.5009665 C87.3843704,58.1384347 89.2033827,56.5642728 90.7253333,54.7288393 C91.7028889,53.5491977 92.5718272,52.2232439 92.8715062,50.7222382 C93.1724938,49.2212324 92.8073827,47.5164347 91.6479259,46.5170705 C89.8524691,44.9716486 85.9906667,45.0265156 83.7332593,44.9742613 C80.5558765,44.9011052 78.7591111,46.2113827 79.0247654,49.5439029" id="Fill-168" fill="#EFF2F7"></path>
                    <polygon id="Fill-170" fill="#524F63" points="40.5885111 214.717244 45.9696469 215.388712 61.1080173 209.681232 61.4443383 197.927926 55.3892519 197.927926 52.698684 205.315383 44.5393012 210.235128"></polygon>
                    <path d="M82.9633852,36.042689 L81.8117802,49.1376254 C81.8117802,49.1376254 82.7330642,54.6517642 85.9549407,53.7333942 C89.1768173,52.8137179 89.6374593,50.2872208 89.6374593,50.2872208 L91.0180765,34.6644809 L82.9633852,36.042689 Z" id="Fill-172" fill="#EEBCC5"></path>
                    <path d="M94.6147481,23.1755815 C97.0645259,23.0776046 99.5849704,22.907778 101.793958,21.847015 C104.004254,20.7849457 105.853365,18.6176971 105.812798,16.1695815 C105.77223,13.7227723 103.242625,11.4170497 100.910625,12.1734312 C100.378007,12.3445642 99.8925012,12.6515584 99.3481062,12.7795815 C98.5001062,12.9768416 97.6206988,12.719489 96.7857852,12.4738936 C90.4938346,10.6214775 83.4533407,9.38827514 77.5762296,12.3027607 C76.4848222,12.8435931 75.418279,13.5647029 74.8450938,14.6385295 C74.3975383,15.4745988 74.2915383,16.4465295 74.2051679,17.3897202 C73.9735383,19.9279746 73.8191185,22.4714543 73.7458346,25.0188532 C75.4470691,24.0978705 77.1378346,23.0044486 78.9058099,22.2245526 C80.6332173,21.4629457 81.7429457,22.2154081 83.5815877,22.5968647 C87.2026,23.3480208 90.9361556,23.3218936 94.6147481,23.1755815" id="Fill-174" fill="#4A4549"></path>
                    <path d="M79.9998346,19.0217538 C78.3967481,18.7278231 76.7046741,19.2464474 75.4536123,20.2823896 C74.2849951,22.2432335 73.5312173,24.4771064 73.3244519,26.8729676 C73.4749457,27.7168751 73.6607728,28.5660081 73.6398346,29.3694185 C73.6254395,29.8802046 73.8374395,30.6614069 74.1672173,31.5353607 C75.0610198,32.8809098 76.4913654,33.7914416 77.9086247,35.4583549 C77.9662049,35.5262855 78.0250938,35.5981353 78.0839827,35.6673723 C79.5915383,33.0690254 82.045242,27.1407711 82.5032667,26.5450717 C83.2060074,25.6332335 85.4686494,22.8924936 85.0603531,21.6788867 C84.6690691,20.5123087 81.1161062,19.2255457 79.9998346,19.0217538" id="Fill-176" fill="#4A4549"></path>
                    <path d="M80.0189407,25.3501457 C79.8985457,25.1724809 79.7689901,24.9922035 79.5818543,24.8850821 C79.352842,24.7531399 79.0754099,24.7505272 78.8123728,24.7505272 C77.7890148,24.7505272 76.611237,24.8236832 75.9948667,25.6401572 C75.7344469,25.9850358 75.6192864,26.4174405 75.5355333,26.8433133 C75.3379284,27.855741 75.2895086,28.8995214 75.3942,29.9263191 C75.5538543,31.5070127 76.315484,33.2810474 77.864916,33.6376832 C78.7888173,33.8506197 79.776842,33.4756948 80.4782741,32.8394983 C82.9123481,30.6291399 81.6128667,27.6963653 80.0189407,25.3501457" id="Fill-178" fill="#EEBCC5"></path>
                    <path d="M99.6920173,33.4695549 C100.48898,33.284052 101.322585,33.1181445 102.119548,33.3062601 C102.916511,33.4930694 103.666363,34.1279595 103.718709,34.9444335 C103.744881,35.3428728 103.607474,35.7295549 103.540733,36.1240751 C103.336585,37.3455202 103.826017,38.5630462 104.252635,39.7270116 C105.184388,42.269185 105.799449,45.3051618 104.253943,47.5298902 C102.801351,49.6226763 99.9419679,50.2040058 97.394042,50.0877399 C89.8340173,49.7428613 82.7608074,44.3449884 80.4418938,37.1534855 C79.6331531,34.6452775 79.3727333,31.8888613 80.1919432,29.3858786 C80.4405852,28.6242717 81.0896716,27.7503179 81.8460667,28.0142023 C82.2844617,30.9299942 84.1924617,33.5858208 86.8175975,34.9365954 C91.4606593,37.3246185 95.2203877,34.5094162 99.6920173,33.4695549" id="Fill-180" fill="#4A4549"></path>
                    <path d="M0.20591358,61.0389422 L11.9993951,105.704642 L64.634284,105.704642 L53.4571728,62.3165607 L0.20591358,61.0389422 Z M1.91630864,62.387104 L52.4364321,63.5980983 L62.9461358,104.398283 L13.0070494,104.398283 L1.91630864,62.387104 Z" id="Fill-182" fill="#524F63"></path>
                    <path d="M85.4605358,105.705164 L10.7423136,105.705164 L10.7423136,102.56076 L85.4605358,102.56076 C86.3294741,102.56076 87.0348321,103.264887 87.0348321,104.133615 C87.0348321,105.001037 86.3294741,105.705164 85.4605358,105.705164" id="Fill-184" fill="#FFFFFF"></path>
                    <path d="M47.6390815,105.705164 L10.7432296,105.705164 L10.7432296,102.56076 L47.6390815,102.56076 C48.5093284,102.56076 49.2146864,103.264887 49.2146864,104.133615 C49.2146864,105.001037 48.5093284,105.705164 47.6390815,105.705164" id="Fill-186" fill="#4F4F4F"></path>
                    <path d="M103.318919,46.387741 L89.7299802,82.2498913 L55.0732148,86.8548046 L56.4381284,93.774585 L100.788005,92.3297526 L112.767314,60.7994867 C113.357511,59.2449202 113.475289,57.5296717 112.984548,55.9424462 C111.877437,52.3721688 109.343906,49.3570936 105.912647,47.6666659 L103.318919,46.387741 Z" id="Fill-188" fill="#D98E9D"></path>
                    <path d="M55.0729531,86.8548046 L36.3816198,76.8872902 C36.3816198,76.8872902 35.3765827,78.3726197 36.8540395,79.6019029 C38.3314963,80.8324925 43.0635457,84.3243884 43.0635457,84.3243884 L43.0635457,87.0403075 C44.6247556,92.1351052 49.4431753,94.5414173 54.7484099,93.9587815 L56.4378667,93.774585 L55.0729531,86.8548046 Z" id="Fill-190" fill="#EEBCC5"></path>
                    <path d="M131.222175,105.628612 L108.89936,105.628612 C108.89936,105.628612 108.252891,104.013953 111.812398,103.368612 C115.370595,102.721964 125.398719,102.399294 125.398719,102.399294 L127.985904,99.4926462 L131.54541,100.461964 L131.222175,105.628612 Z" id="Fill-192" fill="#75454F"></path>
                    <path d="M149.548267,37.5213561 L125.761081,101.598235 L131.632958,103.062662 L168.175477,40.6213445 C168.175477,40.6213445 167.128563,36.5755526 160.917748,32.7022 C154.708242,28.827541 149.548267,37.5213561 149.548267,37.5213561" id="Fill-194" fill="#00A0DF"></path>
                    <path d="M150.202588,8.15311329 C145.562143,0.92503237 135.931847,-1.17820462 128.691131,3.4541422 C124.633032,6.0498763 122.03276,10.6861422 121.562958,15.4360613 C121.326094,17.8423734 121.314316,18.6862809 122.291872,20.9097029 C123.283822,23.1670902 126.014958,26.2527087 124.448514,30.7361306 C124.083402,31.7851364 124.387007,33.3919572 125.614514,33.8805353 C126.835477,34.3665006 127.908563,33.0431595 129.091575,32.9895988 C131.335896,32.8877029 135.747328,36.3195064 137.353032,37.6702809 C138.041378,38.250304 138.782069,38.8525353 139.674563,38.9661884 C140.43881,39.0641653 141.201748,38.7846046 141.886168,38.4292751 C145.303032,36.6591595 147.385081,33.121541 149.091551,29.6779803 C150.689402,26.4551942 152.128909,23.0429861 152.369699,19.4753214 C153.098612,15.6973329 152.4456,11.647622 150.202588,8.15311329" id="Fill-196" fill="#91616A"></path>
                    <path d="M149.613437,38.1942613 C150.270375,38.8683422 151.093511,39.5803075 152.026573,39.4418335 C152.455807,39.3791283 152.835314,39.1387584 153.191264,38.8905503 C154.142647,38.2295329 155.028598,37.4757642 155.833412,36.6436139 C156.321536,36.1367468 156.804425,35.539741 156.81882,34.8382266 C156.825363,34.4424 156.680104,34.0609434 156.519141,33.6990821 C154.944844,30.1588509 151.716425,27.4625272 150.576598,23.7590012 C150.060993,22.081637 150.00603,20.2827815 149.428919,18.6250127 C148.851807,16.9659376 147.513067,15.3643422 145.75556,15.2951052 C144.716499,15.2533017 143.731091,15.7575561 142.897486,16.3767699 C140.18598,18.3964 138.623462,21.8608624 138.90482,25.227348 C139.162622,28.2816139 140.917511,31.0798335 143.430104,32.8042266 C145.830153,34.4528509 147.5484,36.0766543 149.613437,38.1942613" id="Fill-198" fill="#91616A"></path>
                    <path d="M128.690477,3.45388092 C125.803612,5.30107168 123.673143,8.1881237 122.504526,11.4069908 C125.489538,12.8779503 133.103217,9.6068289 135.170872,8.35925665 C134.943168,13.5807711 137.786847,18.8231873 142.29381,21.486852 C145.026254,23.1041237 148.253365,23.8082509 150.989736,25.3784936 C151.705563,23.4633723 152.232946,21.4959965 152.370353,19.4750601 C153.097958,15.6970717 152.444946,11.6473607 150.201933,8.15285202 C145.562798,0.924771098 135.931193,-1.1784659 128.690477,3.45388092" id="Fill-200" fill="#4A4549"></path>
                    <path d="M137.036864,19.2169237 C136.161383,17.6048775 137.032938,15.3853746 138.67921,14.5702069 C140.324173,13.7550393 142.440247,14.2566809 143.752815,15.5421376 C145.062765,16.8249815 145.616321,18.7531665 145.486765,20.5820682 C145.323185,22.8930162 143.638963,25.3881607 141.320049,25.2692821 C140.045432,25.2039642 138.917383,24.3456867 138.204173,23.2875364 C137.490963,22.2306925 137.121926,20.9844266 136.764667,19.7603688" id="Fill-202" fill="#91616A"></path>
                    <polygon id="Fill-204" fill="#FFFFFF" points="158.156644 30.1717838 153.71904 25.0273445 146.706027 37.8884428 149.282743 46.0322809 158.585879 35.6010092"></polygon>
                    <path d="M163.228941,30.8734289 L204.875163,77.1472555 L179.373657,99.5068855 L148.137681,51.6053364 C144.947212,47.0174058 149.828447,36.8970474 153.017607,32.3104231 C155.350916,28.9517757 160.055484,28.289452 163.228941,30.8734289" id="Fill-206" fill="#00A0DF"></path>
                    <polygon id="Fill-208" fill="#37354C" points="203.432647 219.048345 192.237215 156.068807 179.373264 99.5061017 204.876079 77.147778 203.415635 155.360761 209.640844 215.949662"></polygon>
                    <polygon id="Fill-210" fill="#524F63" points="204.875425 77.147778 183.88219 221.053605 177.510412 220.021582 179.373919 99.5061017"></polygon>
                    <polygon id="Fill-212" fill="#524F63" points="165.836017 225.631215 182.657301 224.984568 183.628314 219.81792 178.775869 219.172579 162.601054 223.693886 162.924289 225.953886"></polygon>
                    <polygon id="Fill-214" fill="#37354C" points="209.640975 215.949532 210.12779 220.811798 190.668284 222.014954 190.495543 220.466919 207.715963 214.965844"></polygon>
                    <path d="M122.903793,105.628612 L100.582286,105.628612 C100.582286,105.628612 99.9358173,104.013953 103.494015,103.368612 C107.053521,102.721964 117.849817,102.480288 117.849817,102.480288 L119.66883,99.4926462 L124.538286,101.354207 L122.903793,105.628612 Z" id="Fill-216" fill="#91616A"></path>
                    <path d="M154.685733,35.0087064 L137.749289,66.9217353 L117.443091,102.330579 L124.049116,102.574868 L142.15156,77.6652266 L166.120647,47.0833769 C169.211659,44.6300358 170.157807,40.3530185 168.393758,36.8284636 C165.75161,31.5560012 158.615585,30.6088913 154.685733,35.0087064" id="Fill-218" fill="#00A0DF"></path>
                </g>
                <g id="Group-223" transform="translate(460.000000, 159.000000)">
                    <mask id="mask-18" fill="white">
                        <use xlink:href="#path-17"></use>
                    </mask>
                    <g id="Clip-222"></g>
                    <path d="M0.22,11.7128571 L10.1333333,26.3982857 C9.65733333,20.0185714 7.33066667,0.174857143 7.33066667,0.174857143 L0.22,11.7128571 Z" id="Fill-221" fill="url(#linearGradient-19)" mask="url(#mask-18)"></path>
                </g>
                <g id="Group-258">
                    <path d="M285.56881,238.220738 C284.429351,238.220738 275.317604,242.015662 275.317604,242.015662 L282.436933,300.455123 C280.823899,301.214892 278.582919,301.660815 277.068001,302.094969 C273.571132,303.094046 270.436638,303.454969 267.347933,305.513277 C267.096755,305.692431 267.020878,306.577738 266.97509,306.882431 C266.874358,307.551969 267.784878,307.848815 268.462536,307.8802 C272.680234,308.063277 276.90709,308.082892 281.126097,307.935123 C283.818412,307.839662 286.016221,306.466585 288.41157,305.237354 C289.803515,304.523354 290.332036,302.408815 290.254851,301.418892 C290.229995,301.118123 286.644166,238.220738 285.56881,238.220738" id="Fill-224" fill="#EEBCC5"></path>
                    <path d="M277.739249,305.740685 C281.802577,305.367992 287.27355,303.552915 290.442057,300.979377 C290.724632,303.675838 289.929235,306.265069 284.797091,307.580608 C278.86955,309.100146 272.520762,310.784454 266.654708,309.045223 C266.028071,308.860838 265.305934,308.464608 265.320324,307.810762 C265.328173,307.515223 265.495625,307.249762 265.672235,307.014377 C266.716194,305.621685 269.803591,303.140992 271.636406,303.745146 C272.590098,304.0603 273.272988,305.162685 274.35881,305.494838 C275.436783,305.824377 276.624646,305.842685 277.739249,305.740685" id="Fill-226" fill="#524F63"></path>
                    <path d="M307.327503,301.419154 C307.302647,301.118385 303.718127,238.221 302.642771,238.221 C301.503312,238.221 292.390257,242.015923 292.390257,242.015923 L299.510894,300.455385 C300.709223,303.606923 301.737483,306.612 303.485264,309.495462 C305.233045,312.378923 307.57214,314.987769 310.562729,316.547846 C310.884551,316.716538 311.291408,316.866923 311.592298,316.661615 C311.764983,316.541308 311.848709,316.332077 311.907579,316.132 C312.411243,314.398 311.670791,312.571154 310.944729,310.919538 C309.620812,307.902692 307.589147,304.704077 307.327503,301.419154" id="Fill-228" fill="#EEBCC5"></path>
                    <path d="M301.376676,309.138854 C303.192484,312.506162 305.426923,315.937546 308.914635,317.512008 C309.509875,317.780085 310.169217,317.993238 310.807628,317.859854 C311.667128,317.6807 312.305539,316.892162 312.522703,316.039546 C312.739868,315.189546 312.602505,314.287238 312.378799,313.437238 C312.042587,312.154392 311.510142,310.922546 310.807628,309.797931 C310.640176,309.531162 310.428245,309.244777 310.116888,309.196392 C309.716573,309.132315 309.386902,309.480162 309.057231,309.715546 C308.15456,310.365469 306.867272,310.247777 305.897882,309.701162 C304.928491,309.155854 304.212895,308.257469 303.558786,307.359085 C302.236176,305.540085 301.061395,302.198931 299.223347,301.151469 C298.652964,303.880623 300.098546,306.769315 301.376676,309.138854" id="Fill-230" fill="#524F63"></path>
                    <path d="M205.801192,318.609423 C205.801192,321.011654 203.853253,322.958808 201.450055,322.958808 C199.048164,322.958808 197.100226,321.011654 197.100226,318.609423 C197.100226,316.207192 199.048164,314.261346 201.450055,314.261346 C203.853253,314.261346 205.801192,316.207192 205.801192,318.609423" id="Fill-232" fill="#524F63"></path>
                    <path d="M258.167636,318.609423 C258.167636,321.011654 256.219697,322.958808 253.816499,322.958808 C251.414608,322.958808 249.46667,321.011654 249.46667,318.609423 C249.46667,316.207192 251.414608,314.261346 253.816499,314.261346 C256.219697,314.261346 258.167636,316.207192 258.167636,318.609423" id="Fill-234" fill="#524F63"></path>
                    <path d="M230.875829,318.609423 C230.875829,321.011654 228.92789,322.958808 226.524692,322.958808 C224.122801,322.958808 222.174863,321.011654 222.174863,318.609423 C222.174863,316.207192 224.122801,314.261346 226.524692,314.261346 C228.92789,314.261346 230.875829,316.207192 230.875829,318.609423" id="Fill-236" fill="#524F63"></path>
                    <path d="M201.450578,318.609423 L201.450578,316.354962 C201.450578,311.320346 205.53353,307.240346 210.570174,307.240346 L227.684297,307.240346 L227.684297,262.935731" id="Stroke-238" stroke="#524F63"></path>
                    <path d="M253.334027,318.609423 L253.334027,316.354962 C253.334027,311.320346 249.251075,307.240346 244.214432,307.240346 L227.100308,307.240346 L227.100308,262.935731" id="Stroke-240" stroke="#524F63"></path>
                    <path d="M226.525084,318.609423 L226.525084,307.240346" id="Stroke-242" stroke="#524F63"></path>
                    <mask id="mask-21" fill="white">
                        <use xlink:href="#path-20"></use>
                    </mask>
                    <g id="Clip-245"></g>
                    <polygon id="Fill-244" fill="#524F63" mask="url(#mask-21)" points="221.892288 306.852615 231.545637 306.852615 231.545637 284.852 221.892288 284.852"></polygon>
                    <polygon id="Fill-246" fill="#524F63" mask="url(#mask-21)" points="223.435986 288.325231 229.614705 288.325231 229.614705 263.320846 223.435986 263.320846"></polygon>
                    <path d="M372.691236,318.609423 C372.691236,321.011654 370.743297,322.958808 368.340099,322.958808 C365.9369,322.958808 363.99027,321.011654 363.99027,318.609423 C363.99027,316.207192 365.9369,314.261346 368.340099,314.261346 C370.743297,314.261346 372.691236,316.207192 372.691236,318.609423" id="Fill-247" fill="#524F63" mask="url(#mask-21)"></path>
                    <path d="M425.057025,318.609423 C425.057025,321.011654 423.109087,322.958808 420.707197,322.958808 C418.303998,322.958808 416.35606,321.011654 416.35606,318.609423 C416.35606,316.207192 418.303998,314.261346 420.707197,314.261346 C423.109087,314.261346 425.057025,316.207192 425.057025,318.609423" id="Fill-248" fill="#524F63" mask="url(#mask-21)"></path>
                    <path d="M397.765873,318.609423 C397.765873,321.011654 395.817934,322.958808 393.414736,322.958808 C391.011537,322.958808 389.064907,321.011654 389.064907,318.609423 C389.064907,316.207192 391.011537,314.261346 393.414736,314.261346 C395.817934,314.261346 397.765873,316.207192 397.765873,318.609423" id="Fill-249" fill="#524F63" mask="url(#mask-21)"></path>
                    <path d="M368.339837,318.609423 L368.339837,316.354962 C368.339837,311.320346 372.422789,307.240346 377.459433,307.240346 L394.573556,307.240346 L394.573556,262.935731" id="Stroke-250" stroke="#524F63" mask="url(#mask-21)"></path>
                    <path d="M420.222763,318.609423 L420.222763,316.354962 C420.222763,311.320346 416.139811,307.240346 411.103167,307.240346 L393.989044,307.240346 L393.989044,262.935731" id="Stroke-251" stroke="#524F63" mask="url(#mask-21)"></path>
                    <path d="M393.414474,318.609423 L393.414474,307.240346" id="Stroke-252" stroke="#524F63" mask="url(#mask-21)"></path>
                    <polygon id="Fill-253" fill="#524F63" mask="url(#mask-21)" points="388.7805 306.852615 398.435158 306.852615 398.435158 284.852 388.7805 284.852"></polygon>
                    <polygon id="Fill-254" fill="#524F63" mask="url(#mask-21)" points="390.325507 288.325231 396.504226 288.325231 396.504226 263.320846 390.325507 263.320846"></polygon>
                    <polygon id="Fill-255" fill="#BCBACE" mask="url(#mask-21)" points="131.411925 266.316769 430.141158 266.316769 430.141158 219.004462 131.411925 219.004462"></polygon>
                    <polygon id="Fill-256" fill="#524F63" mask="url(#mask-21)" points="131.841021 340 136.869815 340 136.869815 219.378462 131.841021 219.378462"></polygon>
                    <polygon id="Fill-257" fill="#524F63" mask="url(#mask-21)" points="428.490185 340 433.517671 340 433.517671 219.378462 428.490185 219.378462"></polygon>
                </g>
                <g id="Group-261" transform="translate(131.000000, 218.000000)">
                    <mask id="mask-23" fill="white">
                        <use xlink:href="#path-22"></use>
                    </mask>
                    <g id="Clip-260"></g>
                    <polygon id="Fill-259" fill="url(#linearGradient-24)" mask="url(#mask-23)" points="0.228 0.933272727 303.166621 28.7864545 303.166621 0.933272727"></polygon>
                </g>
                <polygon id="Fill-262" fill="#E0E4ED" points="120 223 445 223 445 215 120 215"></polygon>
            </g>
        </g>
    </g>
</svg>