<?xml version="1.0" encoding="UTF-8"?>
<svg width="130px" height="42px" viewBox="0 0 130 42" version="1.1" xmlns="http://www.w3.org/2000/svg" xmlns:xlink="http://www.w3.org/1999/xlink">
    <!-- Generator: sketchtool 52.2 (67145) - http://www.bohemiancoding.com/sketch -->
    <title>568BA9B8-5FC3-474D-A8B1-D13CEFC9FB81</title>
    <desc>Created with sketchtool.</desc>
    <g id="Symbols" stroke="none" stroke-width="1" fill="none" fill-rule="evenodd">
        <g id="Header/Light/5" transform="translate(0.000000, -2.000000)">
            <g id="primeLabs" transform="translate(0.000000, 2.000000)">
                <path d="M37.3915068,20.0621918 L37.3915068,0 L46.2517808,0 C53.069589,0 54.7323288,3.72821918 54.7323288,7.1630137 C54.7323288,10.5978082 52.5517808,14.2742466 45.9641096,14.2742466 L42.0920548,14.2742466 L42.0920548,20.0621918 L37.3915068,20.0621918 Z M42.1208219,4.01589041 L42.1208219,10.2641096 L45.6476712,10.2641096 C48.7430137,10.2641096 49.8879452,8.91780822 49.8879452,7.13424658 C49.8879452,5.5060274 48.8580822,4.01589041 45.820274,4.01589041 L42.1208219,4.01589041 Z" id="Shape" fill="#00A0DF" fill-rule="nonzero"></path>
                <path d="M57.7528767,20.0621918 L57.7528767,0 L66.4117808,0 C72.8038356,0 74.5183562,3.21041096 74.5183562,6.50712329 C74.577463,9.1271411 72.9561151,11.4919927 70.4909589,12.3813699 L76.0775342,20.0621918 L70.6347945,20.0621918 L65.7213699,13.0315068 L62.4821918,13.0315068 L62.4821918,20.0794521 L57.7528767,20.0621918 Z M62.4821918,4.01589041 L62.4821918,9.42986301 L65.9342466,9.42986301 C68.2010959,9.42986301 69.6624658,8.27917808 69.6624658,6.62219178 C69.6624658,5.10328767 68.6843836,4.01589041 65.7616438,4.01589041 L62.4821918,4.01589041 Z" id="Shape" fill="#00A0DF" fill-rule="nonzero"></path>
                <polygon id="Path" fill="#00A0DF" points="78.5457534 0 83.2750685 0 83.2750685 20.0621918 78.5457534 20.0621918"></polygon>
                <path d="M87.7224658,0 L91.749863,0 L98.5734247,9.20547945 L105.051781,0 L108.946849,0 L108.946849,20.0621918 L104.505205,20.0621918 L104.505205,10.3158904 C104.505205,9.42986301 104.505205,7.76712329 104.56274,7.11123288 L104.447671,7.11123288 C104.031466,7.86197306 103.572349,8.58810797 103.072603,9.2860274 L98.9531507,14.849589 L97.8887671,14.849589 L93.7060274,9.2860274 C93.1594521,8.57260274 92.8430137,8.05479452 92.1871233,7.02493151 L92.0720548,7.02493151 C92.129589,7.60027397 92.1583562,9.1709589 92.1583562,10.350411 L92.1583562,20.0621918 L87.7167123,20.0621918 L87.7224658,0 Z" id="Path" fill="#00A0DF"></path>
                <polygon id="Path" fill="#00A0DF" points="113.273425 0 129.152877 0 129.152877 3.87205479 118.00274 3.87205479 118.00274 8.0260274 128.404932 8.0260274 128.404932 11.7484932 118.00274 11.7484932 118.00274 16.1958904 129.406027 16.1958904 129.406027 20.0621918 113.296438 20.0621918"></polygon>
                <polygon id="Path" fill="#3E3A36" points="15.7126027 41.9654795 0 32.8923288 0 14.7460274 9.41260274 9.3090411 9.41260274 4.74657534 7.14575342 4.74657534 7.14575342 0 14.1591781 0 14.1591781 12.0476712 4.74657534 17.4846575 4.74657534 30.1536986 15.7126027 36.4824658 26.6843836 30.1536986 26.6843836 17.4846575 17.2717808 12.0476712 17.2717808 0 24.2852055 0 24.2852055 4.74657534 22.0183562 4.74657534 22.0183562 9.3090411 31.4309589 14.7460274 31.4309589 32.8923288"></polygon>
                <path d="M24.2334247,19.360274 L24.2334247,28.3183562 L15.7183562,33.2375342 L7.19753425,28.3183562 L7.19753425,21.8227397 C8.27567452,22.1992242 9.40044759,22.4257275 10.540274,22.4958904 C15.8161644,22.4958904 15.8161644,18.7676712 21.0978082,18.7676712 C22.1696493,18.7410471 23.2353681,18.9369513 24.2276712,19.3430137 L24.2334247,19.360274 Z" id="Path" fill="#00A0DF"></path>
                <polygon id="Path" fill="#3D3935" points="39.3994521 24.1989041 39.3994521 35.5043836 46.4416438 35.5043836 46.4416438 37.8920548 36.8161644 37.8920548 36.8161644 24.1989041"></polygon>
                <path d="M57.9830137,35.3087671 L50.82,35.3087671 L49.6693151,37.8920548 L46.8731507,37.8920548 L53.0178082,24.1989041 L55.8024658,24.1989041 L61.9471233,37.8920548 L59.1279452,37.8920548 L57.9830137,35.3087671 Z M54.3986301,27.0756164 L51.8556164,32.9038356 L56.9531507,32.9038356 L54.3986301,27.0756164 Z" id="Shape" fill="#3D3935" fill-rule="nonzero"></path>
                <path d="M74.0408219,28.1687671 C74.0611106,29.3348931 73.3510745,30.3896069 72.2630137,30.809589 C73.5492224,31.2833802 74.4158434,32.4943691 74.4493151,33.8646575 C74.4493151,36.9139726 72.1479452,37.8920548 69.3287671,37.8920548 L62.8331507,37.8920548 L62.8331507,24.1989041 L69.3287671,24.1989041 C72.0271233,24.1989041 74.0408219,25.4128767 74.0408219,28.1687671 Z M65.3761644,29.7164384 L69.3287671,29.7164384 C70.9512329,29.7164384 71.4805479,29.0317808 71.4805479,28.2493151 C71.4805479,27.6279452 70.9684932,26.5693151 69.3287671,26.5693151 L65.3761644,26.5693151 L65.3761644,29.7164384 Z M65.3761644,35.510137 L69.3287671,35.510137 C70.3816438,35.510137 71.8890411,35.1534247 71.8890411,33.8646575 C71.8890411,32.5758904 70.3816438,31.9890411 69.3287671,31.9890411 L65.3761644,31.9890411 L65.3761644,35.510137 Z" id="Shape" fill="#3D3935" fill-rule="nonzero"></path>
                <path d="M85.1449315,27.5071233 C84.3716785,26.502487 83.161239,25.9326163 81.8942466,25.9767123 C79.9783562,25.9767123 79.0578082,26.7821918 79.0578082,27.8005479 C79.0578082,28.9915068 80.4673973,29.3252055 82.1128767,29.5265753 C84.989589,29.8775342 87.6246575,30.619726 87.6246575,33.8876712 C87.6246575,36.9369863 84.9263014,38.2487671 81.8712329,38.2487671 C79.0750685,38.2487671 76.9232877,37.3857534 75.9049315,34.8830137 L78.0567123,33.7726027 C78.6608219,35.2742466 80.2487671,35.9416438 81.9115068,35.9416438 C83.5742466,35.9416438 85.0586301,35.3663014 85.0586301,33.8876712 C85.0586301,32.5989041 83.7123288,32.069589 81.8884932,31.8739726 C79.0923288,31.540274 76.5090411,30.7980822 76.5090411,27.7257534 C76.5090411,24.9065753 79.2879452,23.7558904 81.8136986,23.7328767 C83.9424658,23.7328767 86.1575342,24.3427397 87.1931507,26.4542466 L85.1449315,27.5071233 Z" id="Path" fill="#3D3935"></path>
            </g>
        </g>
    </g>
</svg>