<?xml version="1.0" encoding="UTF-8"?>
<svg width="27px" height="27px" viewBox="0 0 27 27" version="1.1" xmlns="http://www.w3.org/2000/svg" xmlns:xlink="http://www.w3.org/1999/xlink">
    <!-- Generator: sketchtool 52.2 (67145) - http://www.bohemiancoding.com/sketch -->
    <title>FE472104-C495-45F5-900A-07727CCD95D4</title>
    <desc>Created with sketchtool.</desc>
    <defs>
        <path d="M22.7429001,15.4969495 L22.7429001,22.1211273 L18.9400221,22.1211273 L18.9400221,15.940597 C18.9400221,14.3879974 18.3899768,13.3284089 17.013461,13.3284089 C15.9626658,13.3284089 15.3373368,14.0424939 15.0622317,14.733251 C14.9619084,14.9801939 14.9360851,15.3239062 14.9360851,15.6695763 L14.9360851,22.1211273 L11.1319283,22.1211273 C11.1319283,22.1211273 11.1831625,11.6533377 11.1319283,10.5687966 L14.9357138,10.5687966 L14.9357138,12.2062932 C14.9279998,12.2185404 14.9179758,12.2317457 14.9107155,12.2436179 L14.9357138,12.2436179 L14.9357138,12.2062932 C15.4410839,11.4202665 16.3436219,10.297401 18.3637822,10.297401 C20.8666244,10.2973593 22.7429001,11.9485195 22.7429001,15.4969495 Z M7.15261837,5 C5.85122128,5 5,5.86200915 5,6.99558056 C5,8.10444934 5.82659423,8.99261912 7.10212673,8.99261912 L7.12753756,8.99261912 C8.45413921,8.99261912 9.27916589,8.10461597 9.27916589,6.99558056 C9.25416758,5.86200915 8.45413921,5 7.15261837,5 Z M5.22593356,22.1211273 L9.02864654,22.1211273 L9.02864654,10.5687966 L5.22593356,10.5687966 L5.22593356,22.1211273 Z" id="path-1"></path>
    </defs>
    <g id="Symbols" stroke="none" stroke-width="1" fill="none" fill-rule="evenodd">
        <g id="Navigator" transform="translate(-1769.000000, -197.000000)"></g>
        <g id="Social/Linked-In">
            <rect fill="#CCCCCC" x="0" y="0" width="27" height="27"></rect>
            <mask id="mask-2" fill="white">
                <use xlink:href="#path-1"></use>
            </mask>
            <use id="Mask" fill="#FFFFFF" fill-rule="nonzero" xlink:href="#path-1"></use>
            <g id="Button/Default/Color/White" mask="url(#mask-2)" fill="#FFFFFF">
                <rect id="Color" x="0" y="0" width="27" height="27"></rect>
            </g>
        </g>
    </g>
</svg>