<?xml version="1.0" encoding="UTF-8"?>
<svg width="1276px" height="542px" viewBox="0 0 1276 542" version="1.1" xmlns="http://www.w3.org/2000/svg" xmlns:xlink="http://www.w3.org/1999/xlink">
    <!-- Generator: sketchtool 52.6 (67491) - http://www.bohemiancoding.com/sketch -->
    <title>C6B6375B-B94A-41A7-B226-D14E90973884</title>
    <desc>Created with sketchtool.</desc>
    <g id="Homepage" stroke="none" stroke-width="1" fill="none" fill-rule="evenodd" opacity="0.246707589">
        <g id="UI-Guide" transform="translate(-95.000000, -5304.000000)">
            <g id="BG" transform="translate(0.000000, 5244.000000)">
                <g id="Pattern" transform="translate(95.000000, 61.000000)">
                    <ellipse id="Oval-3" stroke="#FFFFFF" stroke-width="2" transform="translate(962.658293, 493.436344) rotate(-164.000000) translate(-962.658293, -493.436344) " cx="962.658293" cy="493.436344" rx="6.90309127" ry="5.76539637"></ellipse>
                    <ellipse id="Oval-3" stroke="#FFFFFF" stroke-width="2" transform="translate(1112.461996, 235.881967) rotate(-125.000000) translate(-1112.461996, -235.881967) " cx="1112.462" cy="235.881967" rx="4.80731286" ry="5.16659828"></ellipse>
                    <ellipse id="Oval-3" stroke="#FFFFFF" stroke-width="2" transform="translate(1259.894558, 20.115800) rotate(-70.000000) translate(-1259.894558, -20.115800) " cx="1259.89456" cy="20.1157997" rx="7.07155623" ry="8.31851386"></ellipse>
                    <ellipse id="Oval-3" stroke="#FFFFFF" stroke-width="2" transform="translate(786.437119, 464.968506) rotate(-268.000000) translate(-786.437119, -464.968506) " cx="786.437119" cy="464.968506" rx="6.46633442" ry="7.99822997"></ellipse>
                    <ellipse id="Oval-3" stroke="#FFFFFF" stroke-width="2" opacity="0.671819196" transform="translate(801.735565, 55.541088) rotate(-231.000000) translate(-801.735565, -55.541088) " cx="801.735565" cy="55.5410877" rx="4.87900821" ry="5.09732511"></ellipse>
                    <ellipse id="Oval-3" stroke="#FFFFFF" stroke-width="2" opacity="0.253738839" transform="translate(755.475485, 176.236823) rotate(-126.000000) translate(-755.475485, -176.236823) " cx="755.475485" cy="176.236823" rx="7.45684949" ry="7.95846872"></ellipse>
                    <ellipse id="Oval-3" stroke="#FFFFFF" stroke-width="2" opacity="0.462165179" transform="translate(527.053907, 6.204801) rotate(-7.000000) translate(-527.053907, -6.204801) " cx="527.053907" cy="6.20480127" rx="6.48245259" ry="5.27218719"></ellipse>
                    <ellipse id="Oval-3" stroke="#FFFFFF" stroke-width="2" opacity="0.5640625" transform="translate(9.670051, 511.443767) rotate(-172.000000) translate(-9.670051, -511.443767) " cx="9.6700513" cy="511.443767" rx="7.97182966" ry="6.49628994"></ellipse>
                    <ellipse id="Oval-3" stroke="#FFFFFF" stroke-width="2" opacity="0.508258929" transform="translate(126.736097, 321.386686) rotate(-285.000000) translate(-126.736097, -321.386686) " cx="126.736097" cy="321.386686" rx="4.51987656" ry="5.43289033"></ellipse>
                    <ellipse id="Oval-3" stroke="#FFFFFF" stroke-width="2" transform="translate(69.314608, 269.148121) rotate(-220.000000) translate(-69.314608, -269.148121) " cx="69.3146083" cy="269.148121" rx="6.00309693" ry="5.78762159"></ellipse>
                    <ellipse id="Oval-3" stroke="#FFFFFF" stroke-width="2" transform="translate(159.278636, 16.591767) rotate(-345.000000) translate(-159.278636, -16.591767) " cx="159.278636" cy="16.5917669" rx="4.93899121" ry="4.10897869"></ellipse>
                    <text id="+" transform="translate(1265.748765, 307.947157) rotate(-230.000000) translate(-1265.748765, -307.947157) " font-family="Roboto-Regular, Roboto" font-size="35" font-weight="normal" letter-spacing="0.3111112" fill="#FA406D">
                        <tspan x="1255.67256" y="316.947157">+</tspan>
                    </text>
                    <text id="+" opacity="0.458426339" transform="translate(858.558003, 334.179425) rotate(-114.000000) translate(-858.558003, -334.179425) " font-family="Roboto-Regular, Roboto" font-size="35" font-weight="normal" letter-spacing="0.3111112" fill="#FA406D">
                        <tspan x="848.481793" y="343.179425">+</tspan>
                    </text>
                    <text id="+" opacity="0.426116071" transform="translate(815.794050, 227.957280) rotate(-337.000000) translate(-815.794050, -227.957280) " font-family="Roboto-Regular, Roboto" font-size="35" font-weight="normal" letter-spacing="0.3111112" fill="#FA406D">
                        <tspan x="805.71784" y="236.95728">+</tspan>
                    </text>
                    <text id="+" opacity="0.16171875" transform="translate(986.060769, 88.621965) rotate(-248.000000) translate(-986.060769, -88.621965) " font-family="Roboto-Regular, Roboto" font-size="35" font-weight="normal" letter-spacing="0.3111112" fill="#FA406D">
                        <tspan x="975.984559" y="97.6219647">+</tspan>
                    </text>
                    <text id="+" transform="translate(693.394916, 528.956957) rotate(-205.000000) translate(-693.394916, -528.956957) " font-family="Roboto-Regular, Roboto" font-size="35" font-weight="normal" letter-spacing="0.3111112" fill="#FA406D">
                        <tspan x="683.318706" y="537.956957">+</tspan>
                    </text>
                    <text id="+" transform="translate(724.158028, 420.788341) rotate(-239.000000) translate(-724.158028, -420.788341) " font-family="Roboto-Regular, Roboto" font-size="35" font-weight="normal" letter-spacing="0.3111112" fill="#FA406D">
                        <tspan x="714.081818" y="429.788341">+</tspan>
                    </text>
                    <text id="+" opacity="0.223716518" transform="translate(380.482619, 372.074552) rotate(-347.000000) translate(-380.482619, -372.074552) " font-family="Roboto-Regular, Roboto" font-size="35" font-weight="normal" letter-spacing="0.3111112" fill="#FA406D">
                        <tspan x="370.406409" y="381.074552">+</tspan>
                    </text>
                    <text id="+" opacity="0.137555804" transform="translate(459.688572, 289.984465) rotate(-266.000000) translate(-459.688572, -289.984465) " font-family="Roboto-Regular, Roboto" font-size="35" font-weight="normal" letter-spacing="0.3111112" fill="#FA406D">
                        <tspan x="449.612362" y="298.984465">+</tspan>
                    </text>
                    <text id="+" transform="translate(218.565067, 181.795679) rotate(-222.000000) translate(-218.565067, -181.795679) " font-family="Roboto-Regular, Roboto" font-size="35" font-weight="normal" letter-spacing="0.3111112" fill="#FA406D">
                        <tspan x="208.488857" y="190.795679">+</tspan>
                    </text>
                    <polygon id="Rectangle-13" fill="#FFFFFF" transform="translate(1246.735442, 158.792796) rotate(-338.000000) translate(-1246.735442, -158.792796) " points="1246.00925 149.70805 1248.92844 149.508031 1247.46163 167.877542 1244.54244 168.077562"></polygon>
                    <polygon id="Rectangle-13" fill="#FFFFFF" opacity="0.272991071" transform="translate(570.786449, 207.934777) rotate(-66.000000) translate(-570.786449, -207.934777) " points="569.304709 199.149262 570.984303 199.291916 572.268189 216.720293 570.588595 216.577639"></polygon>
                    <polygon id="Rectangle-13" fill="#FFFFFF" opacity="0.513113839" transform="translate(355.823935, 487.810370) rotate(-61.000000) translate(-355.823935, -487.810370) " points="353.730241 478.13946 356.289716 478.383647 357.917629 497.48128 355.358154 497.237093"></polygon>
                    <polygon id="Rectangle-13" fill="#FFFFFF" transform="translate(381.313486, 65.475012) rotate(-358.000000) translate(-381.313486, -65.475012) " points="380.373977 58.207243 382.37351 58.1938526 382.252995 72.7427815 380.253463 72.7561719"></polygon>
                    <polygon id="Rectangle-13" fill="#FFFFFF" transform="translate(56.335014, 95.958385) rotate(-276.000000) translate(-56.335014, -95.958385) " points="55.6745415 88.494071 57.2948164 88.4541603 56.995486 103.422699 55.3752111 103.46261"></polygon>
                    <g id="Pattern-2" opacity="0.142410714" transform="translate(640.000000, 254.626593) rotate(-180.000000) translate(-640.000000, -254.626593) translate(177.000000, 39.626593)">
                        <ellipse id="Oval-3" stroke="#FFFFFF" stroke-width="2" transform="translate(798.000000, 375.085910) rotate(-164.000000) translate(-798.000000, -375.085910) " cx="798" cy="375.08591" rx="4.933756" ry="4.12111331"></ellipse>
                        <ellipse id="Oval-3" stroke="#FFFFFF" stroke-width="2" transform="translate(823.000000, 187.620624) rotate(-125.000000) translate(-823.000000, -187.620624) " cx="823" cy="187.620624" rx="3.50367321" ry="3.76497911"></ellipse>
                        <ellipse id="Oval-3" stroke="#FFFFFF" stroke-width="2" transform="translate(869.500000, 7.831718) rotate(-70.000000) translate(-869.500000, -7.831718) " cx="869.5" cy="7.83171776" rx="5.41334039" ry="6.36690383"></ellipse>
                        <ellipse id="Oval-3" stroke="#FFFFFF" stroke-width="2" transform="translate(582.000000, 357.309029) rotate(-268.000000) translate(-582.000000, -357.309029) " cx="582" cy="357.309029" rx="4.84981289" ry="5.99873457"></ellipse>
                        <ellipse id="Oval-3" stroke="#FFFFFF" stroke-width="2" opacity="0.671819196" transform="translate(593.000000, 54.294019) rotate(-231.000000) translate(-593.000000, -54.294019) " cx="593" cy="54.2940193" rx="3.55643468" ry="3.71521578"></ellipse>
                        <ellipse id="Oval-3" stroke="#FFFFFF" stroke-width="2" opacity="0.253738839" transform="translate(559.500000, 144.390482) rotate(-126.000000) translate(-559.500000, -144.390482) " cx="559.5" cy="144.390482" rx="5.71468903" ry="6.09829156"></ellipse>
                        <ellipse id="Oval-3" stroke="#FFFFFF" stroke-width="2" opacity="0.462165179" transform="translate(390.000000, 17.932218) rotate(-7.000000) translate(-390.000000, -17.932218) " cx="390" cy="17.9322181" rx="4.98712372" ry="4.05614995"></ellipse>
                        <ellipse id="Oval-3" stroke="#FFFFFF" stroke-width="2" opacity="0.5640625" transform="translate(7.000000, 392.054751) rotate(-172.000000) translate(-7.000000, -392.054751) " cx="7" cy="392.054751" rx="5.97984054" ry="4.87318509"></ellipse>
                        <ellipse id="Oval-3" stroke="#FFFFFF" stroke-width="2" opacity="0.508258929" transform="translate(94.000000, 251.455786) rotate(-285.000000) translate(-94.000000, -251.455786) " cx="94" cy="251.455786" rx="3.28930106" ry="3.95331343"></ellipse>
                        <ellipse id="Oval-3" stroke="#FFFFFF" stroke-width="2" transform="translate(51.000000, 212.669865) rotate(-220.000000) translate(-51.000000, -212.669865) " cx="51" cy="212.669865" rx="4.62799115" ry="4.46223536"></ellipse>
                        <ellipse id="Oval-3" stroke="#FFFFFF" stroke-width="2" transform="translate(117.500000, 25.608598) rotate(-345.000000) translate(-117.500000, -25.608598) " cx="117.5" cy="25.6085983" rx="3.45914926" ry="2.87813843"></ellipse>
                        <text id="+" transform="translate(902.500000, 291.524586) rotate(-230.000000) translate(-902.500000, -291.524586) " font-family="Roboto-Regular, Roboto" font-size="35" font-weight="normal" letter-spacing="0.3111112" fill="#FA406D">
                            <tspan x="895" y="300.524586">+</tspan>
                        </text>
                        <text id="+" opacity="0.458426339" transform="translate(635.000000, 262.435145) rotate(-114.000000) translate(-635.000000, -262.435145) " font-family="Roboto-Regular, Roboto" font-size="35" font-weight="normal" letter-spacing="0.3111112" fill="#FA406D">
                            <tspan x="629" y="271.435145">+</tspan>
                        </text>
                        <text id="+" opacity="0.426116071" transform="translate(604.000000, 182.439183) rotate(-337.000000) translate(-604.000000, -182.439183) " font-family="Roboto-Regular, Roboto" font-size="35" font-weight="normal" letter-spacing="0.3111112" fill="#FA406D">
                            <tspan x="596" y="191.439183">+</tspan>
                        </text>
                        <text id="+" opacity="0.16171875" transform="translate(729.500000, 79.818099) rotate(-248.000000) translate(-729.500000, -79.818099) " font-family="Roboto-Regular, Roboto" font-size="35" font-weight="normal" letter-spacing="0.3111112" fill="#FA406D">
                            <tspan x="723" y="88.8180991">+</tspan>
                        </text>
                        <text id="+" transform="translate(512.500000, 405.458230) rotate(-205.000000) translate(-512.500000, -405.458230) " font-family="Roboto-Regular, Roboto" font-size="35" font-weight="normal" letter-spacing="0.3111112" fill="#FA406D">
                            <tspan x="506" y="414.45823">+</tspan>
                        </text>
                        <text id="+" transform="translate(535.500000, 323.846187) rotate(-239.000000) translate(-535.500000, -323.846187) " font-family="Roboto-Regular, Roboto" font-size="35" font-weight="normal" letter-spacing="0.3111112" fill="#FA406D">
                            <tspan x="526" y="332.846187">+</tspan>
                        </text>
                        <text id="+" opacity="0.223716518" transform="translate(281.500000, 289.908506) rotate(-347.000000) translate(-281.500000, -289.908506) " font-family="Roboto-Regular, Roboto" font-size="35" font-weight="normal" letter-spacing="0.3111112" fill="#FA406D">
                            <tspan x="275" y="298.908506">+</tspan>
                        </text>
                        <text id="+" opacity="0.137555804" transform="translate(340.000000, 227.689424) rotate(-266.000000) translate(-340.000000, -227.689424) " font-family="Roboto-Regular, Roboto" font-size="35" font-weight="normal" letter-spacing="0.3111112" fill="#FA406D">
                            <tspan x="331" y="236.689424">+</tspan>
                        </text>
                        <text id="+" transform="translate(162.000000, 148.501501) rotate(-222.000000) translate(-162.000000, -148.501501) " font-family="Roboto-Regular, Roboto" font-size="35" font-weight="normal" letter-spacing="0.3111112" fill="#FA406D">
                            <tspan x="155" y="157.501501">+</tspan>
                        </text>
                        <polygon id="Rectangle-13" fill="#FFFFFF" transform="translate(922.000000, 131.057822) rotate(-338.000000) translate(-922.000000, -131.057822) " points="921.560324 124.444673 923.506449 124.311326 922.439676 137.670971 920.493551 137.804317"></polygon>
                        <polygon id="Rectangle-13" fill="#FFFFFF" opacity="0.272991071" transform="translate(422.500000, 167.015603) rotate(-66.000000) translate(-422.500000, -167.015603) " points="421.616476 160.686359 422.456273 160.757686 423.383524 173.344847 422.543727 173.27352"></polygon>
                        <polygon id="Rectangle-13" fill="#FFFFFF" opacity="0.513113839" transform="translate(263.000000, 374.681890) rotate(-61.000000) translate(-263.000000, -374.681890) " points="261.536374 367.438882 263.242691 367.601673 264.463626 381.924898 262.757309 381.762107"></polygon>
                        <polygon id="Rectangle-13" fill="#FFFFFF" transform="translate(281.500000, 61.970400) rotate(-358.000000) translate(-281.500000, -61.970400) " points="281.043636 56.7199673 282.043402 56.7132721 281.956364 67.2208318 280.956598 67.2275271"></polygon>
                        <polygon id="Rectangle-13" fill="#FFFFFF" transform="translate(41.500000, 84.595520) rotate(-276.000000) translate(-41.500000, -84.595520) " points="41.2046858 79.1170336 42.0148232 79.0970783 41.7953142 90.074007 40.9851768 90.0939623"></polygon>
                    </g>
                </g>
            </g>
        </g>
    </g>
</svg>