<?xml version="1.0" encoding="UTF-8"?>
<svg width="67px" height="67px" viewBox="0 0 67 67" version="1.1" xmlns="http://www.w3.org/2000/svg" xmlns:xlink="http://www.w3.org/1999/xlink">
    <!-- Generator: sketchtool 52.2 (67145) - http://www.bohemiancoding.com/sketch -->
    <title>6950BA6F-8BE3-4257-AE72-F94A06847EDE</title>
    <desc>Created with sketchtool.</desc>
    <g id="Homepage" stroke="none" stroke-width="1" fill="none" fill-rule="evenodd">
        <g id="Home---New" transform="translate(-690.000000, -1051.000000)" fill="#00A0DF" fill-rule="nonzero">
            <g id="2-Card" transform="translate(531.000000, 1000.000000)">
                <g id="3-Card" transform="translate(26.000000, 51.000000)">
                    <g id="bitcoin" transform="translate(133.000000, 0.000000)">
                        <path d="M45.0888268,59.4655623 C45.2792479,59.0457452 45.3910649,58.5824986 45.3910649,58.0914127 C45.3910649,56.9054571 44.7688752,55.8676066 43.840019,55.2751856 C44.1145796,54.788554 44.2839657,54.235108 44.2839657,53.6371191 C44.2839657,51.7952687 42.7938103,50.2963989 40.9626683,50.2963989 L23.7074211,50.2963989 L19.6034045,46.1683823 C19.396377,45.9590305 19.1140667,45.8421053 18.8206854,45.8421053 L0,45.8421053 L0,48.0692521 L18.3623464,48.0692521 L25.9769743,55.72841 C26.3589235,56.1137064 26.5703794,56.6248366 26.5703794,57.1682604 C26.5703794,58.2907424 25.6625581,59.2049861 24.5454951,59.2049861 C24.0052307,59.2049861 23.4970722,58.9934072 23.1140159,58.6081108 L18.4963054,53.9633961 L16.9308672,55.5379889 L21.5485777,60.1827036 C22.3036193,60.9421607 23.2955802,61.3653186 24.3561812,61.4132022 L24.3561812,61.432133 L27.6774786,61.432133 L42.0697674,61.432133 L43.7304162,61.432133 C44.6459871,61.432133 45.3910649,62.1815679 45.3910649,63.1024931 C45.3910649,64.0234183 44.6459871,64.7728532 43.7304162,64.7728532 L14.8506279,64.7728532 L8.5324131,58.4176898 C8.32538556,58.208338 8.04307528,58.0914127 7.749694,58.0914127 L0,58.0914127 L0,60.3185596 L7.29135496,60.3185596 L13.6095698,66.673723 C13.8165973,66.8830748 14.0989076,67 14.3922889,67 L43.7304162,67 C45.8671175,67 47.6052632,65.2516898 47.6052632,63.1024931 C47.6052632,61.4365873 46.5546261,60.022349 45.0888268,59.4655623 Z M27.5435196,54.1538172 L25.9216193,52.5235457 L40.9626683,52.5235457 C41.5726799,52.5235457 42.0697674,53.0235402 42.0697674,53.6371191 C42.0697674,54.2506981 41.5726799,54.7506925 40.9626683,54.7506925 L28.0306432,54.7506925 C27.8856132,54.5402271 27.7261909,54.3386704 27.5435196,54.1538172 Z M42.0697674,59.2049861 L28.2465275,59.2049861 C28.5786573,58.5969751 28.7845777,57.9099003 28.7845777,57.1682604 C28.7845777,57.1036731 28.7690783,57.041313 28.765757,56.9778393 L40.9626683,56.9778393 L42.0697674,56.9778393 C42.6797791,56.9778393 43.1768666,57.4778338 43.1768666,58.0914127 C43.1768666,58.7049917 42.6797791,59.2049861 42.0697674,59.2049861 Z" id="Shape"></path>
                        <path d="M23.2695838,2.22714681 L52.1493721,2.22714681 L58.4675869,8.58231025 C58.6746144,8.79166205 58.9569247,8.90858726 59.250306,8.90858726 L67,8.90858726 L67,6.68144044 L59.708645,6.68144044 L53.3904302,0.326277008 C53.1834027,0.116925208 52.9010924,0 52.6077111,0 L23.2695838,0 C21.1328825,0 19.3947368,1.74831025 19.3947368,3.89750693 C19.3947368,5.56341274 20.4453739,6.97876454 21.9111732,7.53443767 C21.7207521,7.95425485 21.6089351,8.41750139 21.6089351,8.90858726 C21.6089351,10.0945429 22.2311248,11.1323934 23.159981,11.7248144 C22.8854204,12.211446 22.7160343,12.764892 22.7160343,13.3628809 C22.7160343,15.2047313 24.2061897,16.7036011 26.0373317,16.7036011 L43.2925789,16.7036011 L47.3965955,20.8316177 C47.603623,21.0409695 47.8859333,21.1578947 48.1793146,21.1578947 L67,21.1578947 L67,18.9307479 L48.6376536,18.9307479 L41.0230257,11.27159 C40.6399694,10.8862936 40.4296206,10.3751634 40.4296206,9.83173961 C40.4296206,8.70814404 41.3374419,7.79501385 42.4545049,7.79501385 C42.9947693,7.79501385 43.5029278,8.0065928 43.8859841,8.3918892 L48.5036946,13.0366039 L50.0691328,11.4620111 L45.4514223,6.8172964 C44.6963807,6.05783934 43.7044198,5.63468144 42.6438188,5.58679778 L42.6438188,5.56786704 L39.3225214,5.56786704 L24.9302326,5.56786704 L23.2695838,5.56786704 C22.3540129,5.56786704 21.6089351,4.81843213 21.6089351,3.89750693 C21.6089351,2.97658172 22.3540129,2.22714681 23.2695838,2.22714681 Z M39.4564804,12.8461828 L41.0783807,14.4764543 L26.0373317,14.4764543 C25.4273201,14.4764543 24.9302326,13.9764598 24.9302326,13.3628809 C24.9302326,12.7493019 25.4273201,12.2493075 26.0373317,12.2493075 L38.9693568,12.2493075 C39.1143868,12.4597729 39.2738091,12.6613296 39.4564804,12.8461828 Z M24.9302326,7.79501385 L38.7534725,7.79501385 C38.4213427,8.40302493 38.2154223,9.09009972 38.2154223,9.83173961 C38.2154223,9.89632687 38.2309217,9.95868698 38.234243,10.0221607 L26.0373317,10.0221607 L24.9302326,10.0221607 C24.3202209,10.0221607 23.8231334,9.5221662 23.8231334,8.90858726 C23.8231334,8.29500831 24.3202209,7.79501385 24.9302326,7.79501385 Z" id="Shape"></path>
                        <path d="M18.5131579,12.4065409 L17.2159825,10.5789474 C9.97378977,15.8624154 5.64913124,24.4114541 5.64913124,33.4458241 C5.64913124,35.2846781 5.82349472,37.1100195 6.17000049,38.899327 L2.87153212,36.9748924 L1.76315789,38.9263524 L7.31613495,42.1660236 C7.48827724,42.2662429 7.68041025,42.3157895 7.87032206,42.3157895 C8.11465305,42.3157895 8.35898405,42.2335872 8.56000181,42.0725608 C8.91650294,41.7865418 9.06532273,41.3090929 8.93427247,40.8676778 C8.22793379,38.4691725 7.87032206,35.9727001 7.87032206,33.4458241 C7.87032206,25.1332578 11.8495854,17.2688629 18.5131579,12.4065409 Z" id="Shape"></path>
                        <path d="M65.2368421,29.1290535 L59.9670796,25.7390238 C59.5825952,25.4938117 59.0906325,25.5096318 58.7227685,25.7819642 C58.3560126,26.0554266 58.189809,26.5289008 58.3028274,26.9775147 C58.834679,29.0861132 59.1050369,31.2726823 59.1050369,33.4739416 C59.1050369,41.8156747 55.1349866,49.7076638 48.4868421,54.5870466 L49.7810142,56.4210526 C57.0064392,51.1190462 61.321085,42.540011 61.321085,33.4739416 C61.321085,31.9936286 61.2080666,30.5189657 60.9853537,29.065773 L64.0545804,31.0399003 L65.2368421,29.1290535 Z" id="Shape"></path>
                        <path d="M33.9407895,19.3947368 C25.9203198,19.3947368 19.3947368,25.9203198 19.3947368,33.9407895 C19.3947368,41.9612591 25.9203198,48.4868421 33.9407895,48.4868421 C41.9612591,48.4868421 48.4868421,41.9612591 48.4868421,33.9407895 C48.4868421,25.9203198 41.9612591,19.3947368 33.9407895,19.3947368 Z M33.9407895,46.2489879 C27.1544965,46.2489879 21.6325911,40.7270825 21.6325911,33.9407895 C21.6325911,27.1544965 27.1544965,21.6325911 33.9407895,21.6325911 C40.7270825,21.6325911 46.2489879,27.1544965 46.2489879,33.9407895 C46.2489879,40.7270825 40.7270825,46.2489879 33.9407895,46.2489879 Z" id="Shape"></path>
                        <path d="M37.8791944,32.9864803 C38.3241959,32.3528454 38.5935673,31.5825658 38.5935673,30.7450658 C38.5935673,28.6182566 36.9019152,26.8881579 34.8223684,26.8881579 L34.2836257,26.8881579 L34.2836257,24.6842105 L32.128655,24.6842105 L32.128655,26.8881579 L31.0511696,26.8881579 C30.4563977,26.8881579 29.9736842,27.3818421 29.9736842,27.9901316 L29.9736842,33.5 L29.9736842,39.0098684 C29.9736842,39.6181579 30.4563977,40.1118421 31.0511696,40.1118421 L32.128655,40.1118421 L32.128655,42.3157895 L34.2836257,42.3157895 L34.2836257,40.1118421 L35.8998538,40.1118421 C37.9794006,40.1118421 39.6710526,38.3817434 39.6710526,36.2549342 C39.6710526,34.8730592 38.9502149,33.6675 37.8791944,32.9864803 Z M32.128655,29.0921053 L34.8223684,29.0921053 C35.7134488,29.0921053 36.4385965,29.8337336 36.4385965,30.7450658 C36.4385965,31.656398 35.7134488,32.3980263 34.8223684,32.3980263 L32.128655,32.3980263 L32.128655,29.0921053 Z M35.8998538,37.9078947 L32.128655,37.9078947 L32.128655,34.6019737 L34.8223684,34.6019737 L35.8998538,34.6019737 C36.7909342,34.6019737 37.5160819,35.343602 37.5160819,36.2549342 C37.5160819,37.1662664 36.7909342,37.9078947 35.8998538,37.9078947 Z" id="Shape"></path>
                        <polygon id="Rectangle-path" points="23.8026316 32.6184211 26.4473684 32.6184211 26.4473684 35.2631579 23.8026316 35.2631579"></polygon>
                        <polygon id="Rectangle-path" points="41.4342105 32.6184211 44.0789474 32.6184211 44.0789474 35.2631579 41.4342105 35.2631579"></polygon>
                    </g>
                </g>
            </g>
        </g>
    </g>
</svg>