<?xml version="1.0" encoding="UTF-8"?>
<svg width="119px" height="119px" viewBox="0 0 119 119" version="1.1" xmlns="http://www.w3.org/2000/svg" xmlns:xlink="http://www.w3.org/1999/xlink">
    <!-- Generator: sketchtool 52.6 (67491) - http://www.bohemiancoding.com/sketch -->
    <title>0DBBAC52-B107-4B4E-9450-9EFE295114C5</title>
    <desc>Created with sketchtool.</desc>
    <g id="Homepage" stroke="none" stroke-width="1" fill="none" fill-rule="evenodd">
        <g id="UI-Guide" transform="translate(-510.000000, -4639.000000)">
            <g id="Group-5" transform="translate(510.000000, 4639.000000)">
                <circle id="Oval-Copy" fill="#00A0DF" opacity="0.149162946" cx="59.5" cy="59.5" r="59.5"></circle>
                <circle id="Oval" fill="#00A0DF" opacity="0.264508929" cx="60" cy="60" r="50"></circle>
                <g id="ethereum" transform="translate(25.000000, 25.000000)" fill="#FFFFFF" fill-rule="nonzero">
                    <path d="M9.91426024,32.6150762 C9.95537716,32.6194425 9.99663489,32.6214893 10.0380334,32.6213528 C10.6536607,32.620807 11.1693119,32.1692973 11.231973,31.575744 C11.3147701,30.7979847 11.437276,30.0207711 11.5969561,29.2657987 C11.7559321,28.5153291 11.9554618,27.7659511 12.1900535,27.0366312 C12.421829,26.3150888 12.6940174,25.5960025 12.9991557,24.8988845 C13.3002104,24.2103628 13.6409739,23.5257981 14.011871,22.8647026 C14.379107,22.2097473 14.785207,21.5632519 15.2169347,20.9441827 C15.6482399,20.326751 16.1140439,19.7235099 16.6028001,19.1498782 C17.0885994,18.579112 17.611432,18.0224 18.1552455,17.4948881 C18.699763,16.9677856 19.2741326,16.4612869 19.8637098,15.989992 C20.4551175,15.5169232 21.0776446,15.0655499 21.7141119,14.6482888 C22.3536772,14.2292539 23.0207006,13.8358714 23.6960319,13.4798759 C24.378967,13.1206057 25.0854177,12.7902626 25.795811,12.4985346 C26.5150755,12.2028496 27.2572922,11.9390937 28.0024659,11.7144986 C28.7546802,11.4870381 29.5278755,11.2938263 30.302338,11.1397754 C30.7228007,11.0561321 31.065254,10.7614022 31.2007145,10.3666552 C31.336175,9.97190825 31.2440844,9.53718169 30.9589414,9.22621439 C30.6739392,8.91524709 30.2392545,8.77511396 29.8187917,8.8587572 C28.966883,9.02822688 28.114411,9.24136023 27.2871442,9.49160772 C26.4674812,9.73898978 25.6502121,10.0289439 24.8581481,10.3541019 C24.0760818,10.6753029 23.2986622,11.0386666 22.5477152,11.4343688 C21.8049353,11.8261139 21.0715897,12.2581115 20.3675328,12.7193091 C19.6675595,13.1780507 18.9834979,13.6744522 18.3339351,14.1940501 C17.6856395,14.7120105 17.0536781,15.268586 16.4557931,15.8484943 C15.8573448,16.4278569 15.2829752,17.0401036 14.7490185,17.667769 C14.2121048,18.2977541 13.6999738,18.9606234 13.225862,19.6394573 C12.7506236,20.3211565 12.304674,21.031783 11.9005454,21.7520973 C11.4921924,22.4792341 11.1172117,23.2325691 10.7857418,23.990407 C10.4501883,24.7579327 10.1509641,25.5498827 9.89567314,26.3436066 C9.6375659,27.1457904 9.41747774,27.9718527 9.24259002,28.7973692 C9.06657581,29.6286166 8.93167852,30.4830603 8.84127762,31.3381863 C8.80860939,31.645333 8.90337544,31.9524798 9.10445407,32.1919478 C9.30609594,32.4314158 9.59729385,32.5836929 9.91426024,32.6150762 Z" id="Shape"></path>
                    <path d="M21.071307,54.1536664 C20.4818971,53.7472778 19.9060339,53.3083835 19.3584363,52.8478629 C18.8135741,52.3901286 18.2822585,51.8975002 17.7785573,51.3851031 C17.2755074,50.8720425 16.7918656,50.3308545 16.3419603,49.7753375 C15.8903616,49.2180956 15.4594736,48.6315322 15.0611498,48.0318339 C14.6611326,47.4292166 14.2856036,46.8007274 13.9457649,46.1644102 C13.6028,45.5209286 13.2874494,44.8552899 13.0089614,44.1858036 C12.8540866,43.8133803 12.5158109,43.5533341 12.1216552,43.5037131 C11.7274996,43.454092 11.3372516,43.6224586 11.098101,43.9453936 C10.8588202,44.2683285 10.8069781,44.6967413 10.9618529,45.0691646 C11.2684763,45.8060507 11.6153489,46.5385584 11.9930923,47.2461228 C12.3670582,47.9459921 12.77958,48.636972 13.2197161,49.3003551 C13.6576379,49.9598907 14.1315104,50.6044338 14.6275265,51.2164711 C15.1219795,51.8273143 15.6532951,52.422767 16.2068845,52.986112 C16.7599528,53.5499877 17.344413,54.0911757 17.9435921,54.5942855 C18.5449855,55.1001815 19.1777708,55.5827264 19.825796,56.0294486 C20.4765566,56.4772322 21.1549316,56.8974191 21.8425547,57.2782011 C22.5366907,57.6629633 23.2558359,58.0162812 23.9792795,58.328602 C24.7119714,58.6447704 25.4679791,58.9267082 26.2256802,59.167251 C26.9914571,59.4104472 27.7800289,59.6178208 28.5680797,59.7826052 C28.641935,59.7981283 28.7173534,59.8059563 28.7927719,59.8058236 C29.3627736,59.8050275 29.8399025,59.3652045 29.8972153,58.7875304 C29.954528,58.2098564 29.5736585,57.6816707 29.0152497,57.5646499 C28.2988399,57.414858 27.5834721,57.2268552 26.887252,57.0056833 C26.1984566,56.7872975 25.5120057,56.5308336 24.8465262,56.2433233 C24.1892527,55.9596607 23.5357567,55.6385832 22.9046648,55.289113 C22.2793042,54.9430923 21.66228,54.5605856 21.071307,54.1536664 Z" id="Shape"></path>
                    <path d="M56.4087831,43.5846911 C55.8434625,43.3414917 55.1915202,43.610696 54.9521056,44.1861219 C54.6742648,44.8538919 54.3594307,45.5195391 54.0164608,46.163029 C53.674533,46.8016098 53.2995197,47.430107 52.8994967,48.0322012 C52.5054656,48.6269982 52.0750925,49.213569 51.6191887,49.7757271 C51.1697979,50.3307205 50.6861492,50.8720481 50.183092,51.3849825 C49.6793835,51.8975189 49.1480602,52.3900208 48.6026691,52.8482918 C48.0555846,53.3082875 47.4797131,53.7471874 46.8909459,54.1529177 C46.2993132,54.5603729 45.68228,54.9428845 45.0575616,55.2890422 C44.4258093,55.6383843 43.7723039,55.9595985 43.1151512,56.2432647 C42.4497923,56.5307787 41.7632012,56.7872459 41.0738748,57.0056344 C40.3780354,57.2268092 39.6627876,57.4146817 38.9463674,57.5644755 C38.3450955,57.6902546 37.9577076,58.2887665 38.0811924,58.9012096 C38.2046772,59.5136528 38.792272,59.9082381 39.3935439,59.7824591 C40.181606,59.6176726 40.9701892,59.4104291 41.7354562,59.167097 C42.4936893,58.9265512 43.2497079,58.6446098 43.9824104,58.3284373 C44.7058645,58.0161125 45.42502,57.6627902 46.1196871,57.278023 C46.8067991,56.8971035 47.4851839,56.4769113 48.136475,56.0285912 C48.7839885,55.5825267 49.4167829,55.0998429 50.017664,54.5946039 C50.6173728,54.090957 51.2019717,53.5497621 51.755048,52.9858792 C52.3086454,52.422527 52.8399687,51.8271994 53.3339078,51.2168791 C53.8343599,50.5993941 54.3087603,49.9541794 54.7417386,49.2996773 C55.18136,48.6385412 55.5938878,47.9474198 55.9694222,47.2454188 C56.347171,46.5361204 56.6945697,45.8036034 56.9995041,45.0684328 C57.1143919,44.7919312 57.1167365,44.4802698 57.0058868,44.2019107 C56.895037,43.9236842 56.6802413,43.7015807 56.4087831,43.5846911 Z" id="Shape"></path>
                    <path d="M39.0178833,11.1402853 C39.7923388,11.2943335 40.5656678,11.4876784 41.3184386,11.715135 C42.0629016,11.9397262 42.8051116,12.2034775 43.5245104,12.4991574 C44.2350381,12.7908803 44.9414824,13.1210812 45.6237073,13.4804816 C46.2995957,13.8363345 46.9667539,14.2298466 47.6056093,14.648192 C48.242775,15.066128 48.8652965,15.5174935 49.4572621,15.9910998 C50.0462707,16.4618407 50.6207759,16.9684671 51.1651477,17.495424 C51.7090971,18.0230632 52.2317842,18.579629 52.7181423,19.1509311 C53.2104144,19.7285098 53.6756509,20.3317403 54.1021647,20.9439764 C54.5340292,21.562489 54.9394215,22.2089732 55.3079215,22.8644629 C55.6799418,23.5273207 56.020139,24.2118735 56.3206277,24.899701 C56.6244959,25.593805 56.8979491,26.3130153 57.1302858,27.0356367 C57.3672692,27.7735401 57.5656706,28.5234509 57.7228147,29.2665393 C57.8843238,30.0299582 58.0061246,30.8006089 58.0877944,31.5758987 C58.1508773,32.1694416 58.6665239,32.6209435 59.2822865,32.6213528 C59.323403,32.6214893 59.3645196,32.6194426 59.4054953,32.6150763 C60.0657538,32.5495819 60.5463387,31.9780069 60.4791723,31.3382086 C60.3876457,30.4814602 60.2527496,29.6263491 60.0765962,28.7986637 C59.9041038,27.9817577 59.6847217,27.1562555 59.4253495,26.3437158 C59.1683711,25.5460487 58.8680232,24.7541124 58.5335992,23.9911028 C58.2038219,23.2343697 57.8284222,22.4815936 57.4188057,21.7510583 C57.0139766,21.0302107 56.5680311,20.3194602 56.0940643,19.6400923 C55.6247442,18.9664553 55.1119139,18.3029152 54.5714847,17.6684384 C54.0369696,17.040238 53.4626052,16.4278655 52.8641623,15.8485131 C52.2662827,15.2686149 51.6344678,14.712049 50.9867413,14.1946433 C50.3366211,13.6743723 49.6525657,13.1781159 48.9520355,12.7187 C48.2485482,12.2581926 47.5152093,11.8260661 46.7718728,11.4344642 C46.0214958,11.038769 45.2440832,10.6754116 44.462024,10.3542162 C43.6699672,10.0290638 42.8527054,9.73911474 42.0336131,9.49173698 C41.2056497,9.24163029 40.3533262,9.02836419 39.5014252,8.85889746 C39.1892492,8.79654134 38.8642595,8.85712365 38.5982692,9.02713617 C38.3321381,9.19714868 38.1466912,9.46267384 38.0829043,9.76531249 C38.0186949,10.0678147 38.0810737,10.3825971 38.2565231,10.6404812 C38.4318317,10.8986383 38.7057073,11.0783385 39.0178833,11.1402853 Z" id="Shape"></path>
                    <path d="M69.796298,40.6415052 C69.3092669,39.0485919 68.0088776,37.8371247 66.3859872,37.4645654 C66.451444,36.6493099 66.4966761,35.8272184 66.4966761,34.9999316 C66.5125278,19.3678894 55.0533588,6.09534394 39.5925816,3.8383864 C39.1969713,1.61752269 37.2667485,0 35.0118383,0 C32.7570648,0 30.8267053,1.61752269 30.4310951,3.8383864 C14.9703179,6.09548066 3.5111488,19.3678894 3.52700054,34.9999316 C3.52700054,35.8257145 3.57250597,36.6479427 3.63837269,37.4642919 C2.00782979,37.8294684 0.69787469,39.0409356 0.206197405,40.6386341 C-0.285479879,42.2363325 0.116416423,43.9752617 1.25938163,45.1947953 C2.40234683,46.4143289 4.11091856,46.9274354 5.736132,46.5392901 C9.89051808,57.0082754 19.2960668,64.4772353 30.4298652,66.1484886 C30.8194627,68.3753679 32.7522819,70 35.0118383,70 C37.2713947,70 39.2042139,68.3753679 39.5938115,66.1484886 C50.7277465,64.477372 60.1332952,57.0084121 64.2876813,46.5392901 C65.9092051,46.9175916 67.6093044,46.400657 68.7461202,45.1835843 C69.882936,43.9665117 70.2833291,42.2345551 69.796298,40.6415052 Z M39.3992177,6.19145741 C53.6437837,8.3373991 64.1749426,20.5879699 64.1644203,35.0000684 C64.1644203,35.8538786 64.1139954,36.7011264 64.038153,37.5383936 C63.1503189,37.7965191 62.3596449,38.3140006 61.7675277,39.0245293 L44.9825836,31.0644747 L36.1778979,17.1616546 L36.1778979,9.16769369 C37.6806703,8.77503667 38.8888189,7.65886261 39.3992177,6.19145741 Z M41.5606572,32.0236954 L36.1780345,34.8973924 L36.1780345,29.4708779 L41.5606572,32.0236954 Z M36.1778979,26.8888025 L36.1778979,21.5213506 L41.0360466,29.1926547 L36.1778979,26.8888025 Z M35.0118383,2.33324674 C36.299929,2.33324674 37.3440941,3.37791675 37.3440941,4.66663021 C37.3440941,5.95534366 36.299929,7.00001367 35.0118383,7.00001367 C33.7237477,7.00001367 32.6795826,5.95534366 32.6795826,4.66663021 C32.6809491,3.37846363 33.7242943,2.33447722 35.0118383,2.33324674 Z M30.624459,6.19145741 C31.1349944,7.65886261 32.343143,8.77503667 33.8457788,9.16769369 L33.8457788,17.1616546 L25.0413664,31.0644747 L8.2561489,39.0245293 C7.6640317,38.3141373 6.87349443,37.7966559 5.98566027,37.5383936 C5.90981789,36.6996225 5.85911965,35.8516911 5.85911965,34.9999316 C5.84873402,20.5879699 16.379893,8.3373991 30.624459,6.19145741 Z M28.98763,29.1929281 L33.8457788,21.5214873 L33.8457788,26.8889392 L28.98763,29.1929281 Z M33.8457788,29.4710146 L33.8457788,34.8976658 L28.463156,32.0238321 L33.8457788,29.4710146 Z M4.69306009,44.3333288 C3.40551608,44.3320983 2.36217087,43.2881119 2.36080434,41.9999453 C2.36080434,40.7112319 3.40496947,39.6665618 4.69306009,39.6665618 C5.98115072,39.6665618 7.02531585,40.7112319 7.02531585,41.9999453 C7.02531585,43.2886588 5.98115072,44.3333288 4.69306009,44.3333288 Z M35.0118383,67.6667533 C33.7237477,67.6667533 32.6795826,66.6220832 32.6795826,65.3333698 C32.6795826,64.0446563 33.7237477,62.9999863 35.0118383,62.9999863 C36.299929,62.9999863 37.3440941,64.0446563 37.3440941,65.3333698 C37.3427275,66.6215364 36.2993823,67.6653861 35.0118383,67.6667533 Z M33.8457788,48.4772822 L28.8886933,40.6469739 L33.8457788,43.0939709 L33.8457788,48.4772822 Z M39.4023607,63.8186598 C38.8941484,62.3464694 37.6840866,61.2259204 36.1778979,60.832443 L36.1778979,52.8384821 L45.3257191,38.3879656 C45.605311,37.9463632 45.5570725,37.3725535 45.2079243,36.9837246 C44.8586393,36.5948957 44.2935794,36.4859306 43.8248598,36.7171225 L35.0118383,41.0676583 L26.1988168,36.7171225 C25.7300972,36.4859306 25.1650373,36.5948957 24.8157524,36.9837246 C24.4664675,37.3725535 24.4183656,37.9463632 24.6979575,38.3879656 L33.8457788,52.8384821 L33.8457788,60.832443 C32.33959,61.2259204 31.1296649,62.3466061 30.621316,63.8186598 C20.2821544,62.2135785 11.5856978,55.2089164 7.81134357,45.4458114 C9.03247426,44.3692859 9.58796847,42.7234624 9.26943046,41.1265842 L25.8398295,33.2678384 L34.4631768,37.8715779 C34.8061756,38.0546446 35.217911,38.0546446 35.5609098,37.8715779 L44.1841204,33.2678384 L60.7545195,41.126721 C60.4358448,42.7238725 60.991749,44.3699695 62.2132896,45.446495 C58.4381155,55.2093266 49.7415223,62.2137153 39.4023607,63.8186598 Z M36.1778979,48.4772822 L36.1778979,43.0939709 L41.1349833,40.6469739 L36.1778979,48.4772822 Z M65.3306165,44.3333288 C64.0425259,44.3333288 62.9983608,43.2886588 62.9983608,41.9999453 C62.9983608,40.7112319 64.0425259,39.6665618 65.3306165,39.6665618 C66.6187072,39.6665618 67.6628723,40.7112319 67.6628723,41.9999453 C67.6613691,43.2881119 66.6180239,44.3318249 65.3306165,44.3333288 Z" id="Shape"></path>
                </g>
            </g>
        </g>
    </g>
</svg>