<?xml version="1.0" encoding="UTF-8"?>
<svg width="60px" height="60px" viewBox="0 0 60 60" version="1.1" xmlns="http://www.w3.org/2000/svg" xmlns:xlink="http://www.w3.org/1999/xlink">
    <!-- Generator: sketchtool 52.2 (67145) - http://www.bohemiancoding.com/sketch -->
    <title>704C86B2-29B9-4FDF-9131-2A022CAEE24F</title>
    <desc>Created with sketchtool.</desc>
    <g id="Homepage" stroke="none" stroke-width="1" fill="none" fill-rule="evenodd">
        <g id="Home---New" transform="translate(-266.000000, -1056.000000)" fill="#00A0DF" fill-rule="nonzero">
            <g id="1-Card" transform="translate(205.000000, 1056.000000)">
                <g id="transaction" transform="translate(61.000000, 0.000000)">
                    <path d="M25.4919499,54.1860465 L23.4525939,54.1860465 L23.4525939,43.5271318 C23.4525939,42.9920058 22.9960331,42.5581395 22.4329159,42.5581395 L4.07871199,42.5581395 C3.51559481,42.5581395 3.05903399,42.9920058 3.05903399,43.5271318 L3.05903399,54.1860465 L1.019678,54.1860465 C0.456560823,54.1860465 0,54.6199128 0,55.1550388 C0.00331395349,57.8294574 2.28407871,59.9968508 5.09838998,60 L21.4132379,60 C24.2275492,59.9968508 26.508314,57.8294574 26.5116279,55.1550388 C26.5116279,54.6199128 26.0550671,54.1860465 25.4919499,54.1860465 Z M5.09838998,44.496124 L21.4132379,44.496124 L21.4132379,54.1860465 L20.3935599,54.1860465 L20.3935599,46.4341085 C20.3935599,45.8989826 19.9369991,45.4651163 19.3738819,45.4651163 L7.13774597,45.4651163 C6.5746288,45.4651163 6.11806798,45.8989826 6.11806798,46.4341085 L6.11806798,54.1860465 L5.09838998,54.1860465 L5.09838998,44.496124 Z M18.3542039,47.4031008 L18.3542039,54.1860465 L8.15742397,54.1860465 L8.15742397,47.4031008 L18.3542039,47.4031008 Z M21.4132379,58.0620155 L5.09838998,58.0620155 C3.80237925,58.060562 2.64746646,57.2846415 2.21372093,56.124031 L24.297907,56.124031 C23.8641614,57.2846415 22.7092487,58.060562 21.4132379,58.0620155 Z" id="Shape"></path>
                    <path d="M25.4919499,11.627907 L23.4525939,11.627907 L23.4525939,0.968992248 C23.4525939,0.433866279 22.9960331,0 22.4329159,0 L4.07871199,0 C3.51559481,0 3.05903399,0.433866279 3.05903399,0.968992248 L3.05903399,11.627907 L1.019678,11.627907 C0.456560823,11.627907 0,12.0617733 0,12.5968992 C0.00331395349,15.2713178 2.28407871,17.4387112 5.09838998,17.4418605 L21.4132379,17.4418605 C24.2275492,17.4387112 26.508314,15.2713178 26.5116279,12.5968992 C26.5116279,12.0617733 26.0550671,11.627907 25.4919499,11.627907 Z M5.09838998,1.9379845 L21.4132379,1.9379845 L21.4132379,11.627907 L20.3935599,11.627907 L20.3935599,3.87596899 C20.3935599,3.34084302 19.9369991,2.90697674 19.3738819,2.90697674 L7.13774597,2.90697674 C6.5746288,2.90697674 6.11806798,3.34084302 6.11806798,3.87596899 L6.11806798,11.627907 L5.09838998,11.627907 L5.09838998,1.9379845 Z M18.3542039,4.84496124 L18.3542039,11.627907 L8.15742397,11.627907 L8.15742397,4.84496124 L18.3542039,4.84496124 Z M21.4132379,15.503876 L5.09838998,15.503876 C3.80237925,15.5024225 2.64746646,14.7265019 2.21372093,13.5658915 L24.297907,13.5658915 C23.8641614,14.7265019 22.7092487,15.5024225 21.4132379,15.503876 Z" id="Shape"></path>
                    <path d="M58.980322,54.1860465 L56.940966,54.1860465 L56.940966,43.5271318 C56.940966,42.9920058 56.4844052,42.5581395 55.921288,42.5581395 L37.5670841,42.5581395 C37.0039669,42.5581395 36.5474061,42.9920058 36.5474061,43.5271318 L36.5474061,54.1860465 L34.5080501,54.1860465 C33.9449329,54.1860465 33.4883721,54.6199128 33.4883721,55.1550388 C33.491686,57.8294574 35.7724508,59.9968508 38.5867621,60 L54.90161,60 C57.7159213,59.9968508 59.996686,57.8294574 60,55.1550388 C60,54.6199128 59.5434392,54.1860465 58.980322,54.1860465 Z M38.5867621,44.496124 L54.90161,44.496124 L54.90161,54.1860465 L53.881932,54.1860465 L53.881932,46.4341085 C53.881932,45.8989826 53.4253712,45.4651163 52.862254,45.4651163 L40.6261181,45.4651163 C40.0630009,45.4651163 39.6064401,45.8989826 39.6064401,46.4341085 L39.6064401,54.1860465 L38.5867621,54.1860465 L38.5867621,44.496124 Z M51.842576,47.4031008 L51.842576,54.1860465 L41.6457961,54.1860465 L41.6457961,47.4031008 L51.842576,47.4031008 Z M54.90161,58.0620155 L38.5867621,58.0620155 C37.2907513,58.060562 36.1358386,57.2846415 35.702093,56.124031 L57.7862791,56.124031 C57.3525335,57.2846415 56.1976208,58.060562 54.90161,58.0620155 Z" id="Shape"></path>
                    <path d="M58.980322,11.627907 L56.940966,11.627907 L56.940966,0.968992248 C56.940966,0.433866279 56.4844052,0 55.921288,0 L37.5670841,0 C37.0039669,0 36.5474061,0.433866279 36.5474061,0.968992248 L36.5474061,11.627907 L34.5080501,11.627907 C33.9449329,11.627907 33.4883721,12.0617733 33.4883721,12.5968992 C33.491686,15.2713178 35.7724508,17.4387112 38.5867621,17.4418605 L54.90161,17.4418605 C57.7159213,17.4387112 59.996686,15.2713178 60,12.5968992 C60,12.0617733 59.5434392,11.627907 58.980322,11.627907 Z M38.5867621,1.9379845 L54.90161,1.9379845 L54.90161,11.627907 L53.881932,11.627907 L53.881932,3.87596899 C53.881932,3.34084302 53.4253712,2.90697674 52.862254,2.90697674 L40.6261181,2.90697674 C40.0630009,2.90697674 39.6064401,3.34084302 39.6064401,3.87596899 L39.6064401,11.627907 L38.5867621,11.627907 L38.5867621,1.9379845 Z M51.842576,4.84496124 L51.842576,11.627907 L41.6457961,11.627907 L41.6457961,4.84496124 L51.842576,4.84496124 Z M54.90161,15.503876 L38.5867621,15.503876 C37.2907513,15.5024225 36.1358386,14.7265019 35.702093,13.5658915 L57.7862791,13.5658915 C57.3525335,14.7265019 56.1976208,15.5024225 54.90161,15.503876 Z" id="Shape"></path>
                    <path d="M40.1479915,32.3574047 L37.5704017,32.3574047 C39.8213531,29.8962694 39.6265116,26.0986202 37.1350529,23.8750651 C34.6435941,21.65151 30.7991543,21.84398 28.548203,24.3051153 C28.5383087,24.3160169 28.5282875,24.3269185 28.5185201,24.3378202 L19.8520085,24.3378202 C19.2915856,24.3378202 18.8372093,24.7866663 18.8372093,25.3402682 L18.8372093,37.369645 C18.8372093,37.9232469 19.2915856,38.372093 19.8520085,38.372093 L40.1479915,38.372093 C40.7084144,38.372093 41.1627907,37.9232469 41.1627907,37.369645 L41.1627907,33.3598527 C41.1627907,32.8062508 40.7084144,32.3574047 40.1479915,32.3574047 Z M20.8668076,26.3427163 L27.3107822,26.3427163 C27.0775053,26.9861626 26.9573784,27.6641934 26.9556025,28.3476124 L20.8668076,28.3476124 L20.8668076,26.3427163 Z M20.8668076,30.3525085 L27.3107822,30.3525085 C27.577167,31.0921899 27.9873996,31.773228 28.5183932,32.3574047 L20.8668076,32.3574047 L20.8668076,30.3525085 Z M28.9852008,36.3671969 L20.8668076,36.3671969 L20.8668076,34.3623008 L28.9852008,34.3623008 L28.9852008,36.3671969 Z M28.9852008,28.3476124 C28.9852008,26.1330793 30.8025793,24.3378202 33.0443975,24.3378202 C35.2862156,24.3378202 37.1035941,26.1330793 37.1035941,28.3476124 C37.1035941,30.5621455 35.2862156,32.3574047 33.0443975,32.3574047 C30.8025793,32.3574047 28.9852008,30.5621455 28.9852008,28.3476124 Z M39.1331924,36.3671969 L31.0147992,36.3671969 L31.0147992,34.3623008 L39.1331924,34.3623008 L39.1331924,36.3671969 Z" id="Shape"></path>
                    <polygon id="Rectangle-path" points="25.8139535 5.58139535 28.6046512 5.58139535 28.6046512 8.37209302 25.8139535 8.37209302"></polygon>
                    <polygon id="Rectangle-path" points="33.4883721 5.58139535 36.2790698 5.58139535 36.2790698 8.37209302 33.4883721 8.37209302"></polygon>
                    <polygon id="Rectangle-path" points="29.3023256 5.58139535 32.0930233 5.58139535 32.0930233 8.37209302 29.3023256 8.37209302"></polygon>
                    <polygon id="Rectangle-path" points="11.1627907 20.9302326 13.9534884 20.9302326 13.9534884 23.7209302 11.1627907 23.7209302"></polygon>
                    <polygon id="Rectangle-path" points="11.1627907 25.8139535 13.9534884 25.8139535 13.9534884 28.6046512 11.1627907 28.6046512"></polygon>
                    <polygon id="Rectangle-path" points="11.1627907 36.9767442 13.9534884 36.9767442 13.9534884 39.7674419 11.1627907 39.7674419"></polygon>
                    <polygon id="Rectangle-path" points="11.1627907 29.3023256 13.9534884 29.3023256 13.9534884 32.0930233 11.1627907 32.0930233"></polygon>
                    <polygon id="Rectangle-path" points="11.1627907 33.4883721 13.9534884 33.4883721 13.9534884 36.2790698 11.1627907 36.2790698"></polygon>
                    <polygon id="Rectangle-path" points="25.8139535 47.4418605 28.6046512 47.4418605 28.6046512 50.2325581 25.8139535 50.2325581"></polygon>
                    <polygon id="Rectangle-path" points="29.3023256 47.4418605 32.0930233 47.4418605 32.0930233 50.2325581 29.3023256 50.2325581"></polygon>
                    <polygon id="Rectangle-path" points="33.4883721 47.4418605 36.2790698 47.4418605 36.2790698 50.2325581 33.4883721 50.2325581"></polygon>
                    <polygon id="Rectangle-path" points="46.0465116 33.4883721 48.8372093 33.4883721 48.8372093 36.2790698 46.0465116 36.2790698"></polygon>
                    <polygon id="Rectangle-path" points="46.0465116 29.3023256 48.8372093 29.3023256 48.8372093 32.0930233 46.0465116 32.0930233"></polygon>
                    <polygon id="Rectangle-path" points="46.0465116 25.8139535 48.8372093 25.8139535 48.8372093 28.6046512 46.0465116 28.6046512"></polygon>
                    <polygon id="Rectangle-path" points="46.0465116 20.9302326 48.8372093 20.9302326 48.8372093 23.7209302 46.0465116 23.7209302"></polygon>
                    <polygon id="Rectangle-path" points="46.0465116 36.9767442 48.8372093 36.9767442 48.8372093 39.7674419 46.0465116 39.7674419"></polygon>
                </g>
            </g>
        </g>
    </g>
</svg>